<svg width="90" height="90" viewBox="0 0 90 90" fill="none" xmlns="http://www.w3.org/2000/svg">
<path fill-rule="evenodd" clip-rule="evenodd" d="M9.89923 23.7442H80.1006C81.5171 23.7442 82.6786 24.9056 82.6786 26.3221V71.8079C82.6786 73.2244 81.5171 74.3804 80.1006 74.3804H9.89923C8.48272 74.3804 7.32129 73.2244 7.32129 71.8079V26.3221C7.32129 24.9056 8.48272 23.7442 9.89923 23.7442Z" fill="white"/>
<path fill-rule="evenodd" clip-rule="evenodd" d="M5.50312 83.433H84.4967C85.6147 83.433 86.521 82.5213 86.521 81.4087V78.1198C86.521 77.0072 85.6147 76.1008 84.4967 76.1008H5.50312C4.38511 76.1008 3.47876 77.0072 3.47876 78.1198V81.4087C3.47876 82.5213 4.38511 83.433 5.50312 83.433Z" fill="white"/>
<path fill-rule="evenodd" clip-rule="evenodd" d="M10.9792 27.2882H79.0206V70.8364H10.9792V27.2882Z" fill="#53B4ED"/>
<path fill-rule="evenodd" clip-rule="evenodd" d="M19.0496 72.7576H24.9707V76.1008H19.0496V72.7576Z" fill="#4B79CE"/>
<path fill-rule="evenodd" clip-rule="evenodd" d="M65.0347 72.7576H70.9504V76.1008H65.0347V72.7576Z" fill="#4B79CE"/>
<path fill-rule="evenodd" clip-rule="evenodd" d="M35.1848 76.1008H54.8152V78.4237H35.1848V76.1008Z" fill="#C5C7CB"/>
<path fill-rule="evenodd" clip-rule="evenodd" d="M85.517 81.5118H4.4828C4.11917 81.5118 3.77183 81.4141 3.47876 81.2404V81.4087C3.47876 82.5212 4.38511 83.433 5.50312 83.433H84.4967C85.6147 83.433 86.521 82.5212 86.521 81.4087V81.2404C86.228 81.4141 85.8806 81.5118 85.517 81.5118Z" fill="#C5C7CB"/>
<path d="M65.3875 31.8633H55.3525V32.8728H65.3875V31.8633Z" fill="white"/>
<path d="M72.3616 31.8633H67.0049V32.8728H72.3616V31.8633Z" fill="white"/>
<path d="M69.0019 35.7927H62.3264V36.8021H69.0019V35.7927Z" fill="white"/>
<path d="M60.7092 35.7927H55.3525V36.8021H60.7092V35.7927Z" fill="white"/>
<path d="M65.3875 39.8306H55.3525V40.84H65.3875V39.8306Z" fill="white"/>
<path d="M72.3616 39.8306H67.0049V40.84H72.3616V39.8306Z" fill="white"/>
<path d="M60.7092 45.2632H55.3525V46.2727H60.7092V45.2632Z" fill="#FFC42E"/>
<path d="M50.5657 23.3752H14.7676V70.8364H50.5657V23.3752Z" fill="white"/>
<path fill-rule="evenodd" clip-rule="evenodd" d="M17.4758 17.9642H47.8629C49.35 17.9642 50.5657 19.1799 50.5657 20.6724V23.3751H14.7676V20.6724C14.7676 19.1799 15.9887 17.9642 17.4758 17.9642Z" fill="#53B4ED"/>
<path d="M34.4249 19.8746H19.2883C18.5989 19.8746 18.04 20.2293 18.04 20.667C18.04 21.1046 18.5989 21.4593 19.2883 21.4593H34.4249C35.1143 21.4593 35.6732 21.1046 35.6732 20.667C35.6732 20.2293 35.1143 19.8746 34.4249 19.8746Z" fill="white"/>
<path d="M39.9445 21.6601C40.4901 21.6601 40.9323 21.2179 40.9323 20.6724C40.9323 20.1269 40.4901 19.6846 39.9445 19.6846C39.399 19.6846 38.9568 20.1269 38.9568 20.6724C38.9568 21.2179 39.399 21.6601 39.9445 21.6601Z" fill="white"/>
<path d="M43.4614 21.6601C44.0069 21.6601 44.4491 21.2179 44.4491 20.6724C44.4491 20.1269 44.0069 19.6846 43.4614 19.6846C42.9159 19.6846 42.4736 20.1269 42.4736 20.6724C42.4736 21.2179 42.9159 21.6601 43.4614 21.6601Z" fill="white"/>
<path d="M46.9782 21.6601C47.5238 21.6601 47.966 21.2179 47.966 20.6724C47.966 20.1269 47.5238 19.6846 46.9782 19.6846C46.4327 19.6846 45.9905 20.1269 45.9905 20.6724C45.9905 21.2179 46.4327 21.6601 46.9782 21.6601Z" fill="white"/>
<path d="M25.2637 42.2185H17.1392V47.1139H25.2637V42.2185Z" fill="#53B4ED"/>
<path d="M22.637 48.2536H17.1392V48.97H22.637V48.2536Z" fill="#AFB0B5"/>
<path fill-rule="evenodd" clip-rule="evenodd" d="M17.1392 49.7461H23.6464V50.1043H17.1392V49.7461ZM17.1392 51.8953H22.0345V52.2535H17.1392V51.8953ZM17.1392 50.8207H23.6464V51.1789H17.1392V50.8207Z" fill="#AFB0B5"/>
<path d="M36.7315 42.2185H28.6069V47.1139H36.7315V42.2185Z" fill="#53B4ED"/>
<path d="M34.1047 48.2536H28.6069V48.97H34.1047V48.2536Z" fill="#AFB0B5"/>
<path fill-rule="evenodd" clip-rule="evenodd" d="M28.6069 49.7461H35.1142V50.1043H28.6069V49.7461ZM28.6069 51.8953H33.5023V52.2535H28.6069V51.8953ZM28.6069 50.8207H35.1142V51.1789H28.6069V50.8207Z" fill="#AFB0B5"/>
<path d="M48.1993 42.2185H40.0747V47.1139H48.1993V42.2185Z" fill="#53B4ED"/>
<path d="M45.5725 48.2536H40.0747V48.97H45.5725V48.2536Z" fill="#AFB0B5"/>
<path fill-rule="evenodd" clip-rule="evenodd" d="M40.0747 49.7461H46.5874V50.1043H40.0747V49.7461ZM40.0747 51.8953H44.9701V52.2535H40.0747V51.8953ZM40.0747 50.8207H46.5874V51.1789H40.0747V50.8207Z" fill="#AFB0B5"/>
<path d="M50.5657 23.3752H14.7676V28.7481H50.5657V23.3752Z" fill="white"/>
<path d="M50.5657 28.7481H14.7676V40.7477H50.5657V28.7481Z" fill="#53B4ED"/>
<path d="M32.6666 26.9408C33.377 26.9408 33.9529 26.365 33.9529 25.6546C33.9529 24.9442 33.377 24.3683 32.6666 24.3683C31.9562 24.3683 31.3804 24.9442 31.3804 25.6546C31.3804 26.365 31.9562 26.9408 32.6666 26.9408Z" fill="#53B4ED"/>
<path d="M33.8006 27.4456H31.6843V27.7619H33.8006V27.4456Z" fill="#53B4ED"/>
<path d="M18.5179 32.8837C19.0334 32.8837 19.5002 33.0953 19.8367 33.4318C20.1732 33.7683 20.3848 34.2351 20.3848 34.7506C20.3848 35.2662 20.1732 35.7275 19.8367 36.0695C19.5002 36.4059 19.0334 36.6122 18.5179 36.6122C18.0023 36.6122 17.5355 36.4059 17.199 36.0695C16.8625 35.7275 16.6509 35.2662 16.6509 34.7506C16.6509 34.2351 16.8625 33.7683 17.199 33.4318C17.5355 33.0953 18.0023 32.8837 18.5179 32.8837ZM19.625 33.6381C19.3428 33.3558 18.952 33.1822 18.5179 33.1822C18.0837 33.1822 17.6929 33.3558 17.4053 33.6381C17.123 33.9257 16.9494 34.3165 16.9494 34.7506C16.9494 35.1848 17.123 35.5756 17.4053 35.8578C17.6929 36.1454 18.0837 36.3191 18.5179 36.3191C18.952 36.3191 19.3428 36.1454 19.625 35.8578C19.9127 35.5756 20.0863 35.1848 20.0863 34.7506C20.0863 34.3165 19.9127 33.9257 19.625 33.6381Z" fill="white"/>
<path fill-rule="evenodd" clip-rule="evenodd" d="M17.8882 34.7507L18.7131 33.9257V35.5702L17.8882 34.7507Z" fill="white"/>
<path d="M46.1479 32.8837C45.6323 32.8837 45.171 33.0953 44.8291 33.4318C44.4926 33.7683 44.2864 34.2351 44.2864 34.7506C44.2864 35.2662 44.4926 35.7275 44.8291 36.0695C45.171 36.4059 45.6323 36.6122 46.1479 36.6122C46.6635 36.6122 47.1303 36.4059 47.4667 36.0695C47.8032 35.7275 48.0149 35.2662 48.0149 34.7506C48.0149 34.2351 47.8032 33.7683 47.4667 33.4318C47.1303 33.0953 46.6635 32.8837 46.1479 32.8837ZM45.0408 33.6381C45.323 33.3558 45.7137 33.1822 46.1479 33.1822C46.5821 33.1822 46.9783 33.3558 47.2605 33.6381C47.5427 33.9257 47.7164 34.3165 47.7164 34.7506C47.7164 35.1848 47.5427 35.5756 47.2605 35.8578C46.9783 36.1454 46.5821 36.3191 46.1479 36.3191C45.7137 36.3191 45.323 36.1454 45.0408 35.8578C44.7531 35.5756 44.5794 35.1848 44.5794 34.7506C44.5794 34.3165 44.7531 33.9257 45.0408 33.6381Z" fill="white"/>
<path fill-rule="evenodd" clip-rule="evenodd" d="M46.7773 34.7507L45.9524 33.9257V35.5702L46.7773 34.7507Z" fill="white"/>
<path fill-rule="evenodd" clip-rule="evenodd" d="M23.2666 37.4317H34.1754V37.8605H23.2666V37.4317ZM23.2666 35.8578H42.072V36.2811H23.2666V35.8578ZM23.2666 34.2785H42.072V34.7072H23.2666V34.2785ZM27.1688 31.706H38.1644V32.7968H27.1688V31.706Z" fill="white"/>
<path d="M25.2637 54.0499H17.1392V58.9453H25.2637V54.0499Z" fill="#53B4ED"/>
<path d="M22.637 60.085H17.1392V60.8014H22.637V60.085Z" fill="#AFB0B5"/>
<path fill-rule="evenodd" clip-rule="evenodd" d="M17.1392 61.5775H23.6464V61.9357H17.1392V61.5775ZM17.1392 63.7267H22.0345V64.0849H17.1392V63.7267ZM17.1392 62.6521H23.6464V63.0103H17.1392V62.6521Z" fill="#AFB0B5"/>
<path d="M36.7315 54.0499H28.6069V58.9453H36.7315V54.0499Z" fill="#53B4ED"/>
<path d="M34.1047 60.085H28.6069V60.8014H34.1047V60.085Z" fill="#AFB0B5"/>
<path fill-rule="evenodd" clip-rule="evenodd" d="M28.6069 61.5775H35.1142V61.9357H28.6069V61.5775ZM28.6069 63.7267H33.5023V64.0849H28.6069V63.7267ZM28.6069 62.6521H35.1142V63.0103H28.6069V62.6521Z" fill="#AFB0B5"/>
<path d="M48.1993 54.0499H40.0747V58.9453H48.1993V54.0499Z" fill="#53B4ED"/>
<path d="M45.5725 60.085H40.0747V60.8014H45.5725V60.085Z" fill="#AFB0B5"/>
<path fill-rule="evenodd" clip-rule="evenodd" d="M40.0747 61.5775H46.5874V61.9357H40.0747V61.5775ZM40.0747 63.7267H44.9701V64.0849H40.0747V63.7267ZM40.0747 62.6521H46.5874V63.0103H40.0747V62.6521Z" fill="#AFB0B5"/>
<path d="M69.0019 49.1925H62.3264V50.202H69.0019V49.1925Z" fill="white"/>
<path d="M60.7092 49.1925H55.3525V50.202H60.7092V49.1925Z" fill="white"/>
<path d="M65.3875 53.2304H55.3525V54.2399H65.3875V53.2304Z" fill="white"/>
<path d="M72.3616 53.2304H67.0049V54.2399H72.3616V53.2304Z" fill="white"/>
<path d="M60.7092 58.9399H55.3525V59.9493H60.7092V58.9399Z" fill="#FFC42E"/>
<path d="M69.0019 62.8692H62.3264V63.8787H69.0019V62.8692Z" fill="white"/>
<path d="M60.7092 62.8692H55.3525V63.8787H60.7092V62.8692Z" fill="white"/>
<path d="M65.3875 66.9071H55.3525V67.9165H65.3875V66.9071Z" fill="white"/>
<path d="M72.3616 66.9071H67.0049V67.9165H72.3616V66.9071Z" fill="white"/>
<path d="M65.3875 28.8295H55.3525V29.839H65.3875V28.8295Z" fill="#FFC42E"/>
</svg>
