<svg width="82" height="82" viewBox="0 0 82 82" fill="none" xmlns="http://www.w3.org/2000/svg">
<path d="M81.9545 26.718L76.1402 0.745313C76.071 0.4182 75.8633 0.221933 75.6557 0.15651C75.5172 0.0256656 75.2403 -0.0397569 74.825 0.0256655C74.6866 0.0256655 74.6174 0.091088 74.479 0.15651L50.5294 13.699C50.0449 13.9606 49.8372 14.6149 50.1833 15.0728C50.3217 15.2691 50.4602 15.3999 50.6678 15.4654L57.2436 18.1477L55.9284 21.3534C55.5131 22.4656 45.4765 46.6065 5.46825 46.6065C3.94545 46.6065 2.28421 46.541 0.692184 46.4756H0.484528C0.346092 46.4756 0.276873 46.541 0.138437 46.6065C0.0692182 46.6719 0 46.8027 0 46.9336C0 47.1298 0.138437 47.3261 0.346092 47.3915L0.484528 47.4569C9.13682 50.2047 18.1352 51.644 27.272 51.7748C60.2892 51.7748 72.1255 28.5499 72.264 28.2882L73.856 25.0825L80.5702 27.8302C80.847 27.9611 81.1931 27.8956 81.3316 27.8302C81.5392 27.7648 81.7469 27.6339 81.8853 27.3068C82.0238 27.1106 82.0238 26.9143 81.9545 26.718ZM4.70685 82H21.9422V58.3825C16.1279 57.99 10.3828 57.1395 4.70685 55.7656V82ZM60.0123 50.0738V82H77.2477V33.9145H77.1785C74.6866 37.6436 69.2184 44.5129 60.0123 50.0738ZM32.325 82H49.5603V54.9805C44.5766 56.7469 38.9007 57.99 32.325 58.4479V82Z" fill="white"/>
</svg>
