<svg width="82" height="82" viewBox="0 0 82 82" fill="none" xmlns="http://www.w3.org/2000/svg">
<path d="M58.4045 23.5955C56.1186 21.3113 53.4048 19.5001 50.4184 18.2655C47.432 17.0308 44.2316 16.3969 41 16.4V41L23.5955 58.4045C33.21 68.019 48.7695 68.019 58.384 58.4045C67.9985 48.79 67.9985 33.21 58.4045 23.5955ZM41 0C18.3475 0 0 18.3475 0 41C0 63.6525 18.3475 82 41 82C63.6525 82 82 63.632 82 41C82 18.3475 63.6525 0 41 0ZM41 73.8C22.878 73.8 8.2 59.122 8.2 41C8.2 22.878 22.878 8.2 41 8.2C59.122 8.2 73.8 22.878 73.8 41C73.8 59.122 59.122 73.8 41 73.8Z" fill="white"/>
</svg>
