<svg width="36" height="33" viewBox="0 0 36 33" fill="none" xmlns="http://www.w3.org/2000/svg">
<path fill-rule="evenodd" clip-rule="evenodd" d="M17.019 30.8222L0.139648 3.74857C0.774845 3.52648 8.27949 3.44652 10.174 3.62198C10.3361 3.87073 10.5338 4.15501 10.7115 4.45484C12.7725 7.93287 14.8321 11.4124 16.8902 14.8934C17.1135 15.2328 17.236 15.6287 17.2433 16.035C17.23 20.8411 17.2433 25.6473 17.2433 30.4513C17.2433 30.5556 17.2278 30.6578 17.2211 30.7622L17.0368 30.8244" fill="white"/>
<path fill-rule="evenodd" clip-rule="evenodd" d="M25.6054 3.6958H35.5997C35.2222 4.67747 19.48 29.9565 18.6138 30.9471V30.3319C18.6138 25.6367 18.6138 20.9409 18.6138 16.2443C18.6007 15.7844 18.7177 15.3302 18.9514 14.9339C21.0761 11.367 23.1919 7.79571 25.2989 4.21995C25.4077 4.03561 25.5432 3.86682 25.6609 3.6958" fill="white"/>
<path fill-rule="evenodd" clip-rule="evenodd" d="M35.6865 32.2038H26.8937C26.8737 31.9595 26.8426 31.7596 26.8426 31.5375C26.8426 28.1172 26.8426 24.6969 26.8426 21.2744C26.8253 20.9007 26.9196 20.5304 27.1136 20.2105C29.9371 15.7331 32.7504 11.2527 35.5532 6.76926C35.5666 6.74705 35.5976 6.73594 35.6776 6.68042L35.6865 32.2038Z" fill="white"/>
<path fill-rule="evenodd" clip-rule="evenodd" d="M0 32.2039V6.68726C0.118445 6.8159 0.228957 6.95163 0.330924 7.09369C3.04939 11.3964 5.76859 15.6948 8.48853 19.9886C8.78804 20.4379 8.94304 20.9679 8.93273 21.5078C8.91274 24.7659 8.93273 28.0263 8.93273 31.28V32.2039H0Z" fill="white"/>
<path fill-rule="evenodd" clip-rule="evenodd" d="M17.9167 13.6856L12.0222 3.57798L17.9056 0L23.8067 3.56687L17.9167 13.6856ZM21.9766 3.72234L21.91 3.51579C19.2448 3.538 16.5796 3.4847 13.9145 3.54688L13.8545 3.73344L17.91 6.4408L21.9766 3.73122" fill="white"/>
</svg>
