<svg width="691" height="269" viewBox="0 0 691 269" fill="none" xmlns="http://www.w3.org/2000/svg">
<path d="M319.887 138.533C319.887 138.533 321.044 158.822 306.767 158.61L305.881 165.932L287.632 163.721L291.954 128.03L319.074 126.146L319.887 138.533Z" fill="#FFCEC8"/>
<path d="M285.54 142.478C285.435 143.388 285.603 144.308 286.021 145.122C286.438 145.937 287.088 146.609 287.888 147.055C288.688 147.5 289.602 147.699 290.514 147.625C291.427 147.551 292.297 147.209 293.015 146.641C293.733 146.073 294.267 145.306 294.549 144.435C294.831 143.564 294.848 142.629 294.599 141.748C294.35 140.867 293.846 140.079 293.15 139.485C292.453 138.89 291.597 138.516 290.688 138.408C289.465 138.266 288.237 138.615 287.272 139.378C286.307 140.142 285.684 141.256 285.54 142.478Z" fill="#FFCEC8"/>
<path d="M306.767 158.609C306.767 158.609 300.351 157.775 296.239 153.431C296.239 153.431 297.464 159.205 306.42 161.475L306.767 158.609Z" fill="#FFB1A8"/>
<path d="M312.984 128.481C312.984 128.481 306.935 141.135 291.234 138.6C291.234 138.6 288.578 137.461 286.744 140.537C286.744 140.537 273.48 131.348 279.79 112.744C279.79 112.744 305.682 86.8253 322.898 111.159C323.177 111.462 323.436 111.782 323.675 112.117C326.932 116.545 327.178 122.516 324.498 127.316L323.949 128.3C323.949 128.3 329.71 137.896 320.066 140.392C320.068 140.392 313.818 135.648 312.984 128.481Z" fill="#FF7867"/>
<path d="M279.784 112.738C279.784 112.738 269.909 117.798 263.547 110.149C262.41 108.782 261.993 105.475 262.817 103.891C263.376 102.795 264.544 101.796 266.882 101.503C266.882 101.503 263.138 100.035 263.588 93.3498C264.08 86.0481 269.225 79.9452 276.159 77.6097C282.373 75.5124 290.659 75.1551 297.974 82.8892C297.974 82.8892 305.024 91.0583 298.59 101.607C298.59 101.604 286.943 106.426 279.784 112.738Z" fill="#FF7867"/>
<path d="M297.958 102.042C301.728 100.033 305.793 99.3904 309.801 99.7296C313.809 100.069 317.735 101.407 321.756 102.837C318.423 100.01 314.308 98.2639 309.959 97.8316C307.753 97.6427 305.531 97.8927 303.421 98.567C301.332 99.2583 299.369 100.416 297.958 102.042Z" fill="#FF7867"/>
<path d="M298.914 101.714C301.102 100.189 302.933 98.2089 304.282 95.9085C305.576 93.5963 306.436 90.7663 305.781 88.1045C304.969 90.4937 303.916 92.7944 302.64 94.9712C301.433 97.1332 299.965 99.2254 298.914 101.714ZM308.619 138.427C308.331 138.781 307.119 138.297 305.791 138.445C304.458 138.512 303.339 139.183 302.997 138.877C302.617 138.618 303.595 136.933 305.657 136.762C307.718 136.591 308.953 138.113 308.619 138.427ZM317.137 139.887C316.762 140.146 315.726 139.369 314.408 139.144C313.114 138.851 311.847 139.196 311.601 138.81C311.306 138.45 312.699 137.098 314.729 137.489C316.759 137.88 317.544 139.667 317.137 139.887Z" fill="#FF7867"/>
<path d="M314.685 142.81C314.623 143.732 314.1 144.449 313.517 144.407C312.935 144.366 312.51 143.589 312.575 142.668C312.639 141.746 313.16 141.028 313.742 141.07C314.325 141.111 314.75 141.888 314.685 142.81ZM306.79 142.274C306.728 143.196 306.203 143.91 305.62 143.872C305.037 143.833 304.615 143.053 304.677 142.129C304.74 141.205 305.263 140.493 305.848 140.534C306.433 140.575 306.852 141.352 306.79 142.274Z" fill="#454545"/>
<path d="M309.522 150.715C309.44 150.708 309.363 150.672 309.305 150.614C309.247 150.555 309.211 150.479 309.204 150.397C309.197 150.315 309.219 150.233 309.266 150.165C309.314 150.098 309.383 150.05 309.463 150.028C310.32 149.819 311.622 149.29 311.7 148.822C311.728 148.651 311.524 148.413 311.143 148.172C308.619 146.58 309.411 142.191 309.445 142.004C309.465 141.917 309.519 141.841 309.595 141.792C309.67 141.744 309.761 141.726 309.849 141.742C309.937 141.759 310.016 141.809 310.068 141.882C310.121 141.955 310.143 142.045 310.131 142.134C310.131 142.175 309.393 146.24 311.516 147.571C312.174 147.988 312.469 148.441 312.389 148.925C312.21 150.015 310.058 150.59 309.628 150.696C309.594 150.708 309.558 150.714 309.522 150.715Z" fill="#FF7867"/>
<path d="M304.377 152.095C304.299 154.065 305.672 155.74 307.484 155.865C309.297 155.989 310.871 154.511 311.06 152.548L304.377 152.095Z" fill="white"/>
<path d="M310.853 153.459C310.951 153.165 311.017 152.861 311.047 152.553L304.377 152.095C304.365 152.404 304.389 152.713 304.45 153.017L310.853 153.459Z" fill="white"/>
<path d="M368.793 181.315L367.907 188.078L360.132 186.191L361.237 179.42L368.793 181.315Z" fill="#FFCEC8"/>
<path d="M358.073 163.659C358.894 163.325 359.841 163.783 360.3 164.744L362.842 168.627L366.516 155.759C366.672 155.194 367.197 154.933 367.676 155.21C367.875 155.348 368.029 155.541 368.121 155.764C368.213 155.988 368.238 156.233 368.194 156.471L366.692 165.72L371.301 155.966C371.343 155.855 371.41 155.756 371.497 155.677C371.585 155.598 371.69 155.54 371.804 155.51C371.918 155.48 372.038 155.478 372.153 155.503C372.268 155.529 372.376 155.582 372.466 155.658C372.666 155.832 372.807 156.064 372.867 156.322C372.927 156.58 372.905 156.85 372.803 157.095L372.772 157.183C372.793 157.16 368.588 166.913 368.588 166.913L373.285 158.788C373.323 158.712 373.376 158.644 373.441 158.589C373.506 158.534 373.581 158.492 373.663 158.466C373.744 158.44 373.83 158.431 373.914 158.439C373.999 158.446 374.082 158.471 374.157 158.511C374.37 158.641 374.529 158.844 374.605 159.082C374.681 159.319 374.668 159.577 374.569 159.806L370.82 168.759L375.654 163.206C375.946 162.884 376.203 162.799 376.534 163.12C376.605 163.187 376.664 163.266 376.708 163.353C376.789 163.529 376.828 163.722 376.82 163.915C376.813 164.109 376.759 164.298 376.664 164.467L368.805 181.323L361.247 179.427C361.247 179.427 360.869 177.568 360.574 174.425C360.279 171.281 358.073 163.659 358.073 163.659Z" fill="#FFCEC8"/>
<path d="M308.313 268.878L310.609 164.458L285.439 160.991L284.53 268.878H308.313Z" fill="#FF7867"/>
<path d="M226.699 264.671L236.613 251.984L225 224.82L260.445 195.108L263.715 227.453C263.715 227.453 246.155 239.568 239.565 268.881H284.53L285.439 160.995L268.961 158.051C266.957 157.7 264.904 157.754 262.922 158.208C260.939 158.663 259.068 159.51 257.418 160.7C246.206 168.607 223.038 188.096 209.351 209.717C207.663 212.381 205.85 218.619 205.85 218.619C204.691 224.566 205.571 230.731 208.349 236.117L226.699 264.671Z" fill="#464646"/>
<path d="M260.445 195.434C260.4 195.434 260.355 195.424 260.313 195.405C260.272 195.387 260.235 195.359 260.204 195.325C260.176 195.294 260.154 195.257 260.141 195.217C260.127 195.177 260.121 195.135 260.124 195.093C260.126 195.051 260.137 195.01 260.156 194.972C260.175 194.934 260.201 194.9 260.233 194.872C260.295 194.815 266.447 189.259 265.849 179.308C265.844 179.224 265.873 179.14 265.929 179.077C265.985 179.013 266.065 178.974 266.149 178.969C266.192 178.965 266.234 178.97 266.275 178.983C266.315 178.996 266.352 179.018 266.384 179.046C266.416 179.074 266.441 179.108 266.459 179.147C266.477 179.185 266.487 179.227 266.489 179.269C267.105 189.546 260.722 195.297 260.657 195.354C260.599 195.406 260.523 195.434 260.445 195.434Z" fill="#333333"/>
<path d="M295.105 268.521C295.072 268.52 295.04 268.514 295.009 268.503C293.836 268.024 293.552 265.808 294.163 261.908C294.163 261.862 294.859 257.846 295.382 256.699C295.297 256.564 295.183 256.414 295.061 256.251C294.608 255.642 293.987 254.809 293.987 253.949C297.448 237.189 297.068 221.185 296.7 205.706C296.405 193.278 296.099 180.406 297.801 167.318C297.823 167.266 297.861 167.222 297.91 167.194C297.959 167.166 298.016 167.155 298.072 167.162C298.128 167.17 298.181 167.195 298.221 167.235C298.261 167.275 298.287 167.326 298.295 167.382C296.597 180.432 296.905 193.275 297.2 205.703C297.568 221.211 297.948 237.243 294.479 254.011C294.479 254.653 295.025 255.381 295.46 255.964C295.618 256.176 295.76 256.367 295.859 256.531C295.869 256.547 295.877 256.566 295.882 256.585C295.894 256.627 295.895 256.671 295.886 256.714C295.876 256.756 295.856 256.796 295.828 256.828C295.538 257.535 293.673 264.785 294.611 267.32C294.652 267.477 294.725 267.623 294.826 267.749C294.928 267.875 295.054 267.979 295.198 268.053C295.258 268.08 295.305 268.128 295.33 268.188C295.356 268.248 295.358 268.315 295.336 268.376C295.314 268.42 295.282 268.456 295.241 268.482C295.2 268.507 295.153 268.521 295.105 268.521ZM296.643 177.799C296.643 178.093 296.556 178.381 296.392 178.626C296.229 178.871 295.996 179.062 295.724 179.174C295.452 179.287 295.153 179.317 294.864 179.259C294.575 179.202 294.31 179.06 294.102 178.852C293.893 178.644 293.752 178.378 293.694 178.089C293.637 177.801 293.666 177.501 293.779 177.229C293.892 176.957 294.082 176.725 294.327 176.561C294.572 176.397 294.86 176.31 295.154 176.31C295.549 176.31 295.928 176.467 296.207 176.746C296.486 177.025 296.643 177.404 296.643 177.799Z" fill="white"/>
<path d="M296.011 209.388C296.011 209.682 295.923 209.97 295.759 210.214C295.595 210.459 295.362 210.649 295.09 210.762C294.818 210.874 294.519 210.903 294.23 210.845C293.942 210.787 293.677 210.645 293.469 210.437C293.261 210.229 293.119 209.964 293.062 209.675C293.005 209.386 293.034 209.087 293.147 208.815C293.26 208.543 293.451 208.311 293.695 208.147C293.94 207.984 294.228 207.896 294.522 207.896C294.718 207.896 294.912 207.935 295.093 208.01C295.273 208.085 295.438 208.195 295.576 208.333C295.714 208.472 295.824 208.636 295.898 208.817C295.973 208.998 296.011 209.192 296.011 209.388ZM295.144 242.805C295.144 243.099 295.056 243.387 294.893 243.632C294.729 243.877 294.497 244.068 294.225 244.18C293.953 244.293 293.653 244.323 293.364 244.265C293.076 244.208 292.81 244.066 292.602 243.858C292.394 243.649 292.252 243.384 292.195 243.095C292.137 242.807 292.167 242.507 292.279 242.235C292.392 241.963 292.583 241.731 292.828 241.567C293.073 241.403 293.36 241.316 293.655 241.316C294.05 241.316 294.428 241.473 294.708 241.752C294.987 242.031 295.144 242.41 295.144 242.805Z" fill="white"/>
<path d="M239.563 268.871L241.652 261.916L245.976 264.609C246.093 264.679 246.232 264.703 246.366 264.675C246.499 264.646 246.617 264.569 246.696 264.458C246.774 264.347 246.808 264.21 246.791 264.075C246.773 263.94 246.705 263.816 246.6 263.729L242.222 260.231C242.156 260.177 242.11 260.104 242.09 260.022C242.069 259.939 242.077 259.853 242.11 259.775C242.132 259.727 242.163 259.683 242.202 259.648C242.241 259.612 242.287 259.585 242.337 259.568C242.388 259.551 242.441 259.544 242.493 259.549C242.546 259.553 242.597 259.569 242.644 259.594L247.343 262.183C247.459 262.248 247.594 262.268 247.724 262.24C247.853 262.211 247.968 262.135 248.045 262.028C248.122 261.92 248.157 261.787 248.143 261.656C248.128 261.524 248.066 261.402 247.967 261.313L243.307 257.028C243.229 256.956 243.181 256.859 243.171 256.754C243.161 256.649 243.19 256.544 243.252 256.459C243.315 256.373 243.406 256.314 243.509 256.292C243.612 256.27 243.72 256.287 243.812 256.339L248.845 259.273C248.996 259.358 249.173 259.384 249.342 259.347C249.51 259.309 249.659 259.21 249.76 259.069C249.86 258.928 249.904 258.755 249.884 258.583C249.864 258.411 249.781 258.253 249.65 258.139L245.218 254.371C245.206 254.36 245.198 254.345 245.195 254.329C245.193 254.312 245.196 254.296 245.205 254.281C245.213 254.267 245.226 254.256 245.242 254.25C245.257 254.245 245.274 254.244 245.29 254.25L250.091 255.99C250.236 256.046 250.398 256.043 250.542 255.983C250.687 255.922 250.802 255.809 250.864 255.665C250.926 255.522 250.93 255.36 250.876 255.213C250.822 255.067 250.713 254.947 250.572 254.879L243.977 251.513C243.769 251.402 243.54 251.334 243.305 251.314C243.069 251.294 242.832 251.322 242.608 251.396C242.383 251.47 242.176 251.589 241.999 251.745C241.822 251.901 241.679 252.092 241.577 252.305L238.405 259.011L234.964 254.092L229.581 261.002L238.211 268.871H239.563Z" fill="#FFCEC8"/>
<path d="M337.071 268.87C333.335 246.903 324.643 233.268 324.643 233.268L328.731 218.608L342.659 234.457C347.239 239.674 354.098 241.313 360.137 238.636C365.944 236.062 369.958 229.954 370.494 222.888L371.853 183.22L358.145 178.425L351.017 210.936L329.806 176.175C328.171 173.496 325.773 171.368 322.919 170.064L310.609 164.448L308.312 268.87H337.071Z" fill="#464646"/>
<path d="M328.729 218.937C328.681 218.937 328.633 218.926 328.59 218.905C328.547 218.884 328.509 218.854 328.479 218.816C328.449 218.779 328.427 218.735 328.416 218.688C328.406 218.641 328.405 218.593 328.416 218.546C328.46 218.354 332.628 199.025 327.191 175.639C327.172 175.556 327.186 175.469 327.232 175.396C327.277 175.324 327.349 175.273 327.432 175.253C327.515 175.234 327.602 175.249 327.675 175.294C327.747 175.339 327.798 175.411 327.818 175.494C333.289 199.028 329.086 218.491 329.042 218.686C329.026 218.757 328.987 218.821 328.93 218.866C328.873 218.912 328.802 218.937 328.729 218.937ZM349.788 220.099H349.743C349.662 220.085 349.589 220.039 349.54 219.971C349.492 219.903 349.472 219.819 349.485 219.737L350.709 210.895C350.714 210.852 350.727 210.811 350.748 210.774C350.769 210.737 350.798 210.705 350.832 210.679C350.865 210.654 350.904 210.635 350.946 210.625C350.987 210.615 351.03 210.613 351.072 210.62C351.156 210.632 351.232 210.677 351.283 210.745C351.335 210.813 351.357 210.898 351.346 210.983L350.119 219.825C350.108 219.904 350.068 219.976 350.007 220.027C349.945 220.077 349.867 220.103 349.788 220.099ZM371.558 192.521C371.525 192.521 371.493 192.516 371.462 192.506L357.975 188.363C357.934 188.351 357.897 188.331 357.864 188.304C357.831 188.277 357.804 188.244 357.785 188.207C357.765 188.169 357.753 188.128 357.749 188.086C357.745 188.044 357.75 188.002 357.762 187.961C357.788 187.881 357.845 187.813 357.92 187.773C357.995 187.733 358.082 187.725 358.164 187.749L371.651 191.892C371.692 191.904 371.729 191.924 371.762 191.951C371.795 191.978 371.822 192.011 371.842 192.048C371.862 192.085 371.874 192.126 371.879 192.168C371.883 192.21 371.878 192.253 371.866 192.293C371.845 192.359 371.804 192.416 371.749 192.457C371.694 192.498 371.627 192.521 371.558 192.521ZM368.637 189.01C368.279 189.01 367.928 188.904 367.63 188.705C367.332 188.506 367.1 188.222 366.963 187.891C366.826 187.56 366.79 187.196 366.86 186.844C366.93 186.492 367.102 186.17 367.356 185.916C367.609 185.663 367.932 185.49 368.284 185.42C368.635 185.35 369 185.386 369.331 185.523C369.662 185.66 369.945 185.893 370.144 186.191C370.343 186.489 370.45 186.839 370.45 187.198C370.45 187.678 370.259 188.139 369.919 188.479C369.579 188.819 369.118 189.01 368.637 189.01ZM368.637 186.032C368.406 186.033 368.181 186.102 367.989 186.231C367.798 186.359 367.648 186.542 367.56 186.755C367.472 186.969 367.45 187.203 367.495 187.43C367.54 187.656 367.652 187.864 367.815 188.027C367.979 188.19 368.187 188.301 368.413 188.346C368.639 188.391 368.874 188.367 369.087 188.279C369.301 188.19 369.483 188.041 369.611 187.849C369.739 187.657 369.808 187.431 369.808 187.2C369.807 186.89 369.683 186.593 369.464 186.374C369.245 186.155 368.947 186.032 368.637 186.032ZM226.901 259.901C226.543 259.901 226.192 259.795 225.894 259.596C225.596 259.397 225.364 259.114 225.227 258.783C225.09 258.451 225.054 258.087 225.124 257.735C225.194 257.384 225.366 257.061 225.62 256.807C225.873 256.554 226.196 256.381 226.548 256.311C226.899 256.241 227.264 256.277 227.595 256.414C227.926 256.552 228.209 256.784 228.408 257.082C228.607 257.38 228.714 257.731 228.714 258.089C228.714 258.57 228.523 259.031 228.183 259.371C227.843 259.71 227.382 259.901 226.901 259.901ZM226.901 256.924C226.67 256.924 226.445 256.992 226.252 257.121C226.06 257.249 225.911 257.431 225.822 257.645C225.734 257.858 225.711 258.093 225.756 258.319C225.801 258.546 225.912 258.754 226.076 258.917C226.239 259.081 226.447 259.192 226.673 259.237C226.9 259.282 227.135 259.259 227.348 259.17C227.562 259.082 227.744 258.932 227.872 258.74C228.001 258.548 228.069 258.323 228.069 258.092C228.069 257.782 227.946 257.485 227.727 257.266C227.508 257.047 227.211 256.924 226.901 256.924ZM223.509 255.979C223.432 255.979 223.358 255.951 223.3 255.901C223.235 255.845 223.195 255.767 223.189 255.682C223.182 255.597 223.209 255.513 223.263 255.448L233.027 244.084C233.083 244.019 233.162 243.979 233.247 243.972C233.333 243.966 233.417 243.993 233.482 244.049C233.547 244.104 233.587 244.183 233.593 244.269C233.6 244.354 233.572 244.438 233.517 244.503L223.753 255.867C223.722 255.902 223.685 255.93 223.643 255.949C223.601 255.968 223.555 255.978 223.509 255.979Z" fill="#333333"/>
<path d="M291.84 171.888C291.791 171.888 291.743 171.873 291.703 171.846L284.435 167.053C284.397 167.011 284.375 166.957 284.371 166.901C284.367 166.844 284.382 166.788 284.413 166.741C284.444 166.693 284.49 166.657 284.544 166.639C284.597 166.62 284.655 166.619 284.709 166.637L291.83 171.333L297.746 166.888C297.772 166.868 297.801 166.853 297.833 166.844C297.865 166.836 297.898 166.834 297.93 166.839C297.962 166.843 297.993 166.854 298.021 166.871C298.05 166.888 298.074 166.91 298.093 166.937C298.13 166.99 298.145 167.056 298.136 167.12C298.127 167.184 298.094 167.243 298.044 167.284L291.982 171.838C291.941 171.869 291.891 171.886 291.84 171.888Z" fill="white"/>
<path d="M302.94 172.566C302.905 172.565 302.87 172.558 302.838 172.543C302.806 172.529 302.777 172.508 302.753 172.483L298.093 167.25C298.052 167.2 298.031 167.136 298.035 167.071C298.039 167.006 298.067 166.945 298.114 166.9C298.164 166.858 298.228 166.837 298.293 166.84C298.358 166.844 298.42 166.872 298.466 166.918L303.012 172.032L311.373 168.987C311.429 168.984 311.484 168.998 311.531 169.029C311.578 169.059 311.613 169.104 311.632 169.157C311.652 169.209 311.653 169.266 311.637 169.32C311.622 169.373 311.589 169.42 311.544 169.453L303.025 172.56C302.997 172.567 302.968 172.569 302.94 172.566Z" fill="white"/>
<path d="M287.813 161.293L297.013 165.635L306.107 163.846L297.448 159.731L287.813 161.293Z" fill="#FFCEC8"/>
<path d="M310.609 164.459L306.518 160.676L306.106 163.845L308.884 165.015L310.609 164.459ZM288.313 157.941L287.922 161.546L285.438 160.992L288.313 157.941Z" fill="#FF7867"/>
<path d="M109.315 268.87L109.216 268.728L112.971 241.344C96.9795 247.159 79.2896 267.516 79.2896 267.516C78.9194 267.969 78.5828 268.42 78.228 268.87H109.315Z" fill="#333333"/>
<path d="M129.333 161.259L129.887 162.525L132.357 168.167L148.962 171.569L158.281 158.599L156.318 153.975L155.868 152.9L129.333 161.259Z" fill="#FFD3CF"/>
<path d="M243.584 41.0724C243.584 41.0724 233.043 26.7745 217.174 34.651C217.171 34.651 228.924 51.4916 243.584 41.0724Z" fill="#545ED7"/>
<path d="M239.125 33.8434L236.088 42.3258L224.26 38.3849L227.647 29.9336L239.125 33.8434Z" fill="#FFCEC8"/>
<path d="M108.836 268.87H180.367C196.074 197.86 160.104 156.592 160.104 156.592L156.531 154.503L158.286 158.591L148.965 171.555L132.365 168.163L129.338 161.255L125.573 164.782L111.035 231.665C111.035 231.665 115.154 243.537 108.852 252.503C102.55 261.47 104.261 267.037 104.261 267.037L108.836 268.87ZM12.4072 109.286C12.4072 109.286 23.0698 96.2002 36.8835 102.5L25.7367 114.618L12.4072 109.286Z" fill="#545ED7"/>
<path d="M16.9092 105.088L19.949 113.57L31.7741 109.629L28.3874 101.178L16.9092 105.088Z" fill="#FFCEC8"/>
<path d="M29.5659 80.3909C28.8975 80.2614 28.2049 80.3722 27.6103 80.7039C27.0157 81.0355 26.5574 81.5667 26.3164 82.2034L23.2378 87.6823L14.3204 71.9344C14.2282 71.7682 14.1026 71.6229 13.9513 71.5078C13.8001 71.3927 13.6266 71.3103 13.4419 71.2658C13.2571 71.2212 13.0651 71.2155 12.878 71.2491C12.691 71.2826 12.5129 71.3546 12.3551 71.4606C12.0904 71.6471 11.8971 71.9183 11.8072 72.2295C11.7173 72.5406 11.7361 72.8731 11.8606 73.1721L16.485 84.7254L6.83224 73.1488C6.71837 73.0105 6.57807 72.8964 6.41954 72.8131C6.26102 72.7297 6.08746 72.6789 5.90903 72.6634C5.7306 72.648 5.55088 72.6683 5.3804 72.7232C5.20992 72.7781 5.0521 72.8664 4.91619 72.9831C4.6489 73.2178 4.48109 73.5455 4.44694 73.8995C4.41279 74.2536 4.51485 74.6073 4.73235 74.8888L4.80744 74.9949C4.76602 74.969 13.7689 86.6233 13.7689 86.6233L4.37763 77.1388C4.19195 76.9511 3.94859 76.8311 3.68658 76.7983C3.42457 76.7654 3.15912 76.8215 2.93282 76.9576C2.79027 77.0424 2.66722 77.1563 2.57172 77.2919C2.47623 77.4275 2.41044 77.5817 2.37867 77.7445C2.34689 77.9073 2.34985 78.0749 2.38734 78.2365C2.42482 78.3981 2.496 78.5499 2.59622 78.682L10.6877 89.4067L1.70551 83.2469C1.16435 82.8948 0.737126 82.8352 0.291774 83.3116C0.198248 83.4068 0.124347 83.5194 0.0742758 83.6431C-0.0102054 83.8875 -0.0229133 84.151 0.0376549 84.4025C0.0982232 84.6539 0.229534 84.8828 0.416058 85.062L16.9096 105.087L28.3956 101.178C28.4762 98.9989 28.4261 96.8174 28.2454 94.6448C27.9399 90.5667 29.5659 80.3909 29.5659 80.3909Z" fill="#FFCEC8"/>
<path d="M177.188 267.281C177.11 267.813 177.03 268.346 176.947 268.879H200.745C207.883 210.975 196.817 176.774 196.817 176.774L243.584 41.0733C242.612 41.4559 241.599 41.7252 240.565 41.8759C236.764 42.4249 233.056 40.7548 230.405 37.9921C224.802 32.1481 217.171 34.6597 217.171 34.6597L163.377 155.692L160.104 156.601C190.636 206.211 177.188 267.281 177.188 267.281ZM45.9614 175.552L105.46 204.033C100.895 217.77 77.4676 247.121 59.0527 268.871H83.2545C86.2395 265.603 89.5069 262.604 93.0186 259.91C104.714 250.943 112.003 241.829 112.003 241.829C134.297 211.788 125.573 164.783 125.573 164.783L106.428 169.873L57.2325 148.548L36.8835 102.501C36.8835 102.501 32.5206 100.805 26.7051 107.105C20.8896 113.404 12.4072 109.287 12.4072 109.287L33.4993 162.222C35.8318 168.073 40.2807 172.831 45.9614 175.552Z" fill="#464646"/>
<path d="M156.953 177.511C156.9 177.511 156.849 177.494 156.808 177.462L148.812 171.765C148.776 171.751 148.743 171.728 148.717 171.699C148.69 171.67 148.671 171.635 148.66 171.598C148.649 171.56 148.646 171.52 148.653 171.482C148.66 171.443 148.675 171.406 148.698 171.374C148.721 171.342 148.75 171.316 148.785 171.297C148.819 171.279 148.858 171.268 148.897 171.266C148.936 171.265 148.975 171.272 149.011 171.287C149.047 171.303 149.079 171.327 149.105 171.356L156.904 176.91L166.813 164.137C166.854 164.086 166.914 164.053 166.98 164.044C167.045 164.036 167.111 164.052 167.165 164.091C167.216 164.133 167.25 164.193 167.258 164.259C167.266 164.325 167.249 164.392 167.209 164.446L157.152 177.41C157.129 177.441 157.098 177.466 157.064 177.483C157.029 177.501 156.991 177.51 156.953 177.511Z" fill="white"/>
<path d="M145.927 180.537C145.9 180.537 145.873 180.532 145.847 180.524L126.826 174.103C126.777 174.072 126.74 174.025 126.721 173.971C126.702 173.916 126.701 173.857 126.72 173.802C126.738 173.747 126.774 173.7 126.823 173.668C126.871 173.637 126.929 173.622 126.986 173.627L145.771 179.968L148.718 171.48C148.741 171.418 148.788 171.367 148.848 171.338C148.907 171.309 148.976 171.305 149.039 171.325C149.101 171.348 149.152 171.395 149.181 171.454C149.21 171.514 149.215 171.583 149.194 171.646L146.165 180.369C146.147 180.418 146.114 180.46 146.072 180.49C146.029 180.52 145.979 180.536 145.927 180.537Z" fill="white"/>
<path d="M145.894 265.748C145.848 265.747 145.804 265.734 145.764 265.71C145.725 265.687 145.693 265.653 145.671 265.613C145.642 265.554 145.637 265.486 145.656 265.423C145.675 265.36 145.718 265.306 145.775 265.274C146.88 264.678 147.621 261.563 148.336 258.542C149.112 255.308 149.837 252.219 151.124 251.232C150.762 251.113 150.676 250.973 150.656 250.841C150.647 250.769 150.663 250.695 150.701 250.633C150.739 250.57 150.797 250.522 150.865 250.497C150.982 250.452 151.108 250.435 151.233 250.448C151.008 250.114 150.777 249.754 150.542 249.383C149.949 248.451 149.335 247.486 148.729 246.885C148.683 246.837 148.657 246.773 148.657 246.706C148.657 246.64 148.683 246.576 148.729 246.527C151.95 243.309 153.051 238.91 154.115 234.656C155.324 210.379 153.597 190.333 148.711 171.618C148.697 171.553 148.707 171.486 148.741 171.429C148.775 171.372 148.829 171.33 148.892 171.312C148.956 171.298 149.024 171.308 149.08 171.341C149.137 171.374 149.179 171.428 149.198 171.491C154.117 190.258 155.829 210.353 154.609 234.728C153.54 239.021 152.445 243.41 149.257 246.709C149.889 247.463 150.46 248.266 150.964 249.112C151.354 249.756 151.78 250.379 152.24 250.976L152.258 250.997C152.289 251.036 152.308 251.083 152.312 251.133C152.317 251.182 152.307 251.232 152.284 251.276V251.289C152.262 251.316 152.236 251.34 152.207 251.359L152.155 251.377C152.13 251.385 152.104 251.385 152.08 251.377H152.059C150.57 251.377 149.656 255.227 148.848 258.627C148.071 261.895 147.341 264.979 146.036 265.68C145.997 265.717 145.947 265.74 145.894 265.748Z" fill="white"/>
<path d="M147.261 186.708C147.261 186.972 147.339 187.23 147.485 187.449C147.632 187.669 147.84 187.84 148.084 187.94C148.328 188.041 148.596 188.068 148.854 188.016C149.113 187.965 149.351 187.838 149.537 187.651C149.724 187.465 149.851 187.227 149.902 186.969C149.954 186.71 149.927 186.442 149.826 186.198C149.725 185.955 149.554 185.746 149.335 185.6C149.116 185.453 148.858 185.375 148.594 185.375C148.241 185.375 147.901 185.515 147.651 185.766C147.401 186.016 147.261 186.355 147.261 186.708Z" fill="white"/>
<path d="M149.2 211.547C149.937 211.547 150.534 210.95 150.534 210.213C150.534 209.477 149.937 208.88 149.2 208.88C148.464 208.88 147.867 209.477 147.867 210.213C147.867 210.95 148.464 211.547 149.2 211.547Z" fill="white"/>
<path d="M148.473 234.568C149.209 234.568 149.806 233.971 149.806 233.235C149.806 232.498 149.209 231.901 148.473 231.901C147.736 231.901 147.139 232.498 147.139 233.235C147.139 233.971 147.736 234.568 148.473 234.568Z" fill="white"/>
<path d="M141.323 261.95C141.323 262.213 141.401 262.471 141.548 262.691C141.694 262.91 141.903 263.081 142.146 263.182C142.39 263.283 142.658 263.309 142.917 263.258C143.176 263.206 143.413 263.079 143.6 262.893C143.786 262.706 143.913 262.468 143.965 262.21C144.016 261.951 143.99 261.683 143.889 261.439C143.788 261.196 143.617 260.987 143.398 260.841C143.178 260.694 142.92 260.616 142.657 260.616C142.303 260.617 141.964 260.758 141.715 261.008C141.465 261.257 141.324 261.596 141.323 261.95Z" fill="white"/>
<path d="M129.333 161.258L129.887 162.524C131.934 164.518 134.487 165.915 137.269 166.565C140.051 167.215 142.958 167.095 145.677 166.216C148.396 165.337 150.824 163.733 152.699 161.577C154.574 159.421 155.825 156.794 156.318 153.98L155.868 152.905L129.333 161.258Z" fill="#FFB2A9"/>
<path d="M146.583 164.405C148.48 163.592 150.2 162.414 151.642 160.937C153.085 159.46 154.222 157.714 154.99 155.797C155.757 153.881 156.14 151.832 156.115 149.767C156.091 147.703 155.66 145.664 154.847 143.766L148.517 128.979L119.613 141.353L125.944 156.14C127.585 159.972 130.682 162.995 134.552 164.545C138.422 166.095 142.75 166.045 146.583 164.405Z" fill="#FFD3CF"/>
<path d="M152.859 144.936C154.094 147.383 154.962 149.433 157.409 148.198C159.855 146.963 162.957 142.908 161.722 140.461C161.429 139.879 161.023 139.361 160.529 138.936C160.035 138.511 159.462 138.187 158.842 137.983C158.223 137.779 157.57 137.7 156.92 137.748C156.27 137.797 155.636 137.973 155.054 138.267C154.472 138.561 153.953 138.966 153.528 139.46C153.103 139.955 152.779 140.528 152.575 141.147C152.372 141.766 152.292 142.419 152.341 143.07C152.389 143.72 152.566 144.354 152.859 144.936ZM128.23 154.966C129.007 157.595 129.799 159.679 127.171 160.463C124.543 161.248 119.504 160.438 118.72 157.812C118.342 156.551 118.481 155.191 119.106 154.033C119.73 152.874 120.79 152.01 122.051 151.633C123.312 151.255 124.672 151.394 125.831 152.019C126.989 152.643 127.853 153.703 128.23 154.964V154.966Z" fill="#FFD3CF"/>
<path d="M158.726 137.949C158.726 137.949 160.707 133.361 159.299 128.273C158.483 125.327 155.637 123.312 152.605 123.68L152.471 123.695C152.471 123.695 152.168 113.701 141.143 111.034C130.118 108.367 126.058 121.637 126.058 121.637C125.419 121.147 124.641 120.872 123.836 120.85C123.032 120.828 122.24 121.061 121.576 121.515C121.576 121.515 119.455 122.605 120.364 125.21C120.364 125.21 115.25 122.222 110.245 128.835C104.067 137.033 119.02 154.601 119.02 154.601C119.02 154.601 119.748 151.087 124.108 151.328L120.778 144.241C120.778 144.241 129.439 145.634 131.076 137.768C131.076 137.768 137.013 142.475 141.979 138.92C147.31 135.104 149.001 142.043 153.172 139.891C153.183 139.881 155.221 136.991 158.726 137.949Z" fill="#464646"/>
<path d="M243.679 0.229831C243.944 0.416357 244.137 0.687558 244.227 0.998699C244.317 1.30984 244.298 1.64233 244.174 1.94133L239.56 13.4817L249.202 1.91803C249.316 1.77979 249.456 1.66566 249.615 1.58233C249.773 1.49899 249.947 1.4481 250.125 1.43267C250.304 1.41724 250.483 1.43757 250.654 1.49245C250.824 1.54734 250.982 1.63568 251.118 1.75231C251.385 1.98698 251.553 2.31471 251.587 2.66876C251.621 3.02281 251.519 3.37657 251.302 3.65801L251.227 3.76676C251.414 3.64064 251.635 3.57328 251.861 3.57328C252.087 3.57328 252.308 3.64064 252.496 3.76676C252.706 3.91805 252.863 4.13325 252.942 4.38045C253.02 4.62765 253.017 4.89368 252.933 5.13906C250.486 9.30259 247.78 14.015 245.347 18.1734L254.329 12.011C254.87 11.6588 255.297 11.5993 255.742 12.0757C255.836 12.1708 255.91 12.2835 255.96 12.4071C256.044 12.6516 256.057 12.9151 255.997 13.1666C255.936 13.418 255.805 13.6468 255.618 13.826L239.125 33.8514L227.646 29.9416C227.566 27.7638 227.616 25.5832 227.797 23.4115C228.094 19.3308 226.468 9.15501 226.468 9.15501C227.138 9.02625 227.832 9.13894 228.427 9.47309C229.022 9.80725 229.479 10.3413 229.718 10.9804L232.796 16.4593L241.714 0.711429C241.806 0.544873 241.931 0.399161 242.082 0.283508C242.233 0.167854 242.406 0.0847776 242.591 0.039516C242.775 -0.00574559 242.968 -0.0122062 243.155 0.0205517C243.342 0.0533097 243.521 0.124574 243.679 0.229831Z" fill="#FFCEC8"/>
<path d="M242.268 15.6591C242.207 15.6593 242.147 15.6393 242.098 15.6022C242.039 15.5567 242.002 15.4901 241.992 15.4168C241.983 15.3436 242.003 15.2697 242.048 15.2112L251.012 3.57505C251.035 3.54615 251.062 3.52191 251.094 3.50373C251.126 3.48556 251.161 3.47379 251.197 3.4691C251.233 3.46441 251.27 3.46689 251.305 3.47641C251.34 3.48593 251.373 3.50228 251.402 3.52456C251.431 3.54683 251.455 3.57458 251.473 3.60621C251.492 3.63785 251.503 3.67276 251.508 3.70894C251.513 3.74513 251.51 3.78189 251.501 3.81711C251.491 3.85234 251.475 3.88534 251.453 3.91424L242.489 15.5504C242.463 15.5843 242.43 15.6119 242.391 15.6307C242.353 15.6496 242.311 15.6593 242.268 15.6591Z" fill="#FF9C91"/>
<path d="M134.198 150.769C134.475 151.45 135.109 151.836 135.614 151.632C136.119 151.427 136.306 150.707 136.028 150.024C135.751 149.34 135.117 148.957 134.61 149.161C134.102 149.366 133.921 150.086 134.198 150.769Z" fill="#464646"/>
<path d="M136.389 153.617L134.488 154.394C133.521 154.785 132.438 154.776 131.477 154.37C130.516 153.963 129.755 153.193 129.361 152.226L128.196 149.36L137.404 145.621L138.569 148.487C138.921 149.355 138.952 150.32 138.657 151.209C138.362 152.098 137.76 152.852 136.958 153.337C136.776 153.445 136.585 153.538 136.389 153.617ZM128.952 149.673L129.897 152.004C130.235 152.827 130.884 153.483 131.703 153.829C132.523 154.175 133.446 154.182 134.271 153.85L136.171 153.073C136.994 152.736 137.651 152.087 137.996 151.267C138.342 150.448 138.35 149.525 138.017 148.7L137.072 146.369L128.952 149.673Z" fill="white"/>
<path d="M143.382 147.038C143.659 147.719 144.294 148.108 144.801 147.901C145.309 147.694 145.49 146.976 145.213 146.295C144.936 145.614 144.301 145.226 143.796 145.431C143.292 145.635 143.1 146.355 143.382 147.038Z" fill="#464646"/>
<path d="M148.019 148.901L146.119 149.677C145.151 150.069 144.068 150.061 143.107 149.655C142.145 149.248 141.385 148.477 140.992 147.51L139.827 144.644L149.021 140.91L150.186 143.776C150.539 144.644 150.571 145.609 150.276 146.498C149.981 147.388 149.378 148.142 148.576 148.626C148.397 148.731 148.211 148.823 148.019 148.901ZM140.583 144.957L141.528 147.288C141.865 148.111 142.514 148.767 143.334 149.113C144.153 149.459 145.076 149.466 145.901 149.134L147.802 148.357C148.625 148.02 149.281 147.371 149.627 146.551C149.973 145.732 149.98 144.809 149.648 143.984L148.703 141.653L140.583 144.957ZM147.866 154.758C148.289 155.939 148.233 157.24 147.709 158.381C147.186 159.522 146.238 160.413 145.066 160.864C143.895 161.315 142.594 161.29 141.441 160.794C140.287 160.299 139.374 159.372 138.895 158.212L147.866 154.758Z" fill="white"/>
<path d="M137.587 144.902L143.812 151.513L140.526 153.962L137.587 144.902Z" fill="#FFCEC8"/>
<path d="M140.676 154.21L140.699 154.195L143.982 151.745C144.015 151.721 144.043 151.69 144.063 151.654C144.083 151.619 144.095 151.579 144.099 151.538C144.103 151.498 144.098 151.457 144.084 151.418C144.071 151.38 144.049 151.345 144.021 151.316L137.807 144.703C137.753 144.652 137.682 144.624 137.608 144.624C137.535 144.624 137.464 144.652 137.41 144.703C137.356 144.753 137.324 144.822 137.319 144.896C137.314 144.969 137.338 145.042 137.385 145.099L143.387 151.476L140.363 153.729C140.299 153.772 140.254 153.838 140.24 153.914C140.225 153.989 140.241 154.068 140.284 154.131C140.326 154.195 140.393 154.24 140.469 154.254C140.544 154.269 140.622 154.253 140.686 154.21H140.676Z" fill="#FF7867"/>
<path d="M130.614 146.339C130.695 146.473 130.824 146.571 130.974 146.615C131.124 146.659 131.285 146.644 131.425 146.575L134.459 145.052C134.665 144.928 134.813 144.728 134.87 144.495C134.928 144.262 134.891 144.015 134.767 143.81C134.702 143.702 134.615 143.609 134.512 143.536C134.409 143.464 134.292 143.414 134.168 143.39C134.045 143.365 133.917 143.367 133.794 143.395C133.672 143.422 133.556 143.476 133.455 143.551L130.78 145.524C130.656 145.615 130.57 145.75 130.539 145.901C130.509 146.052 130.535 146.209 130.614 146.342V146.339ZM144.868 140.747C144.913 140.896 144.9 141.057 144.831 141.197C144.763 141.337 144.644 141.447 144.498 141.503L141.331 142.727C141.217 142.762 141.098 142.773 140.98 142.761C140.862 142.749 140.747 142.714 140.642 142.658C140.538 142.602 140.445 142.525 140.37 142.433C140.295 142.341 140.239 142.235 140.205 142.121C140.169 142.001 140.158 141.874 140.174 141.749C140.19 141.624 140.232 141.503 140.296 141.395C140.361 141.287 140.448 141.193 140.55 141.121C140.653 141.048 140.77 140.997 140.894 140.972L144.151 140.317C144.303 140.285 144.461 140.312 144.594 140.391C144.726 140.471 144.824 140.598 144.868 140.747Z" fill="#464646"/>
<path d="M128.975 149.918L148.858 141.845C148.923 141.82 148.981 141.782 149.031 141.734C149.081 141.686 149.12 141.628 149.147 141.564C149.174 141.501 149.188 141.432 149.188 141.363C149.189 141.294 149.175 141.225 149.148 141.161C149.123 141.097 149.085 141.038 149.036 140.989C148.988 140.94 148.93 140.9 148.867 140.873C148.803 140.847 148.735 140.833 148.666 140.833C148.596 140.833 148.528 140.847 148.464 140.874L128.581 148.947C128.517 148.972 128.458 149.01 128.408 149.058C128.359 149.106 128.319 149.164 128.292 149.228C128.265 149.291 128.251 149.36 128.251 149.429C128.251 149.498 128.265 149.567 128.291 149.631C128.317 149.695 128.355 149.754 128.403 149.803C128.451 149.853 128.509 149.892 128.573 149.919C128.636 149.945 128.705 149.959 128.774 149.959C128.843 149.959 128.911 149.945 128.975 149.918Z" fill="#FF9D5A"/>
<path d="M400.263 137.497C400.263 137.497 390.983 162.68 406.643 168.516L405.071 186.817L426.178 188.176L431.026 149.563C431.026 149.563 418.918 111.084 400.263 137.497Z" fill="#FFD3CF"/>
<path d="M405.071 186.817L384.639 264.031C384.639 264.031 392.953 253.122 413.897 261.087C434.842 269.051 441.488 252.718 441.488 252.718L430.873 229.249L426.165 188.176L415.632 185.548L405.071 186.817Z" fill="#545ED3"/>
<path d="M415.855 185.326L419.017 195.005L426.332 192.693L426.179 188.177L427.028 179.418L415.855 185.326ZM405.856 177.745L415.855 185.326L410.379 195.168L403.243 192.354L405.071 186.818L405.856 177.745Z" fill="#545ED3"/>
<path d="M456.141 268.87C451.193 263.174 443.897 255 441.491 252.711C441.491 252.711 432.17 267.568 409.032 259.13C406.928 258.325 404.729 257.792 402.489 257.545C397.668 257.089 390.141 257.654 384.623 264.018C384.623 264.018 384.349 265.696 384.082 268.865L456.141 268.87ZM357.299 67.2422C357.299 67.2422 367.811 56.8153 376.415 63.2444L365.297 73.3632C365.297 73.3632 359.148 76.3176 357.299 67.2422ZM517.434 138.53C517.434 138.53 518.553 135.94 514.503 130.267C511.3 125.239 507.885 123.618 502.349 124.532L504.742 138.343C504.742 138.343 509.066 145.622 517.434 138.53Z" fill="#FF7867"/>
<path d="M362.877 65.1503L364.096 71.8643L371.771 69.5935L370.331 62.8821L362.877 65.1503ZM372.711 46.9866C371.874 46.6915 370.95 47.1964 370.541 48.1803L368.192 52.1937L363.886 39.5218C363.703 38.9651 363.164 38.7295 362.701 39.0298C362.511 39.1806 362.368 39.3827 362.289 39.6122C362.211 39.8417 362.2 40.0889 362.258 40.3245L364.215 49.4853L359.13 39.9723C359.084 39.8629 359.013 39.766 358.922 39.69C358.831 39.614 358.723 39.5611 358.607 39.5357C358.491 39.5103 358.371 39.5131 358.256 39.5441C358.142 39.575 358.037 39.6331 357.949 39.7134C357.76 39.8981 357.633 40.1375 357.586 40.3981C357.54 40.6586 357.576 40.9272 357.69 41.166L357.727 41.2514C357.703 41.2281 362.387 50.7618 362.387 50.7618L357.292 42.8723C357.25 42.7981 357.193 42.733 357.125 42.6809C357.058 42.6289 356.98 42.5909 356.898 42.5691C356.815 42.5474 356.729 42.5425 356.645 42.5545C356.56 42.5665 356.479 42.5954 356.406 42.6393C356.204 42.7789 356.059 42.9858 355.995 43.2229C355.931 43.46 355.954 43.712 356.059 43.9339L360.249 52.6908L355.145 47.3828C354.834 47.0773 354.575 47.0048 354.26 47.3414C354.191 47.4109 354.137 47.4926 354.099 47.5822C354.026 47.7618 353.996 47.9563 354.014 48.1495C354.031 48.3427 354.094 48.5291 354.197 48.693L362.882 65.1374L370.336 62.8692C370.336 62.8692 370.621 60.9971 370.758 57.8408C370.896 54.6845 372.711 46.9866 372.711 46.9866ZM512.8 134.473L508.295 139.599L502.888 133.698L507.58 128.688L512.8 134.473Z" fill="#FFCEC8"/>
<path d="M513.729 113.839C514.596 114.018 515.13 114.926 514.974 115.98L514.92 120.641L525.14 111.998C525.582 111.615 526.175 111.692 526.408 112.189C526.493 112.415 526.511 112.659 526.461 112.895C526.411 113.13 526.295 113.346 526.126 113.518L519.725 120.361L528.985 114.81C529.081 114.741 529.192 114.696 529.309 114.679C529.426 114.662 529.545 114.673 529.657 114.712C529.769 114.75 529.87 114.815 529.952 114.901C530.033 114.986 530.093 115.09 530.127 115.203C530.195 115.459 530.182 115.73 530.089 115.978C529.996 116.225 529.828 116.438 529.609 116.586L529.531 116.64C529.562 116.64 520.637 122.391 520.637 122.391L529.07 118.248C529.144 118.206 529.226 118.18 529.311 118.17C529.396 118.16 529.482 118.168 529.564 118.192C529.646 118.216 529.722 118.256 529.788 118.311C529.854 118.365 529.908 118.432 529.948 118.507C530.05 118.732 530.068 118.987 530 119.224C529.931 119.461 529.779 119.666 529.572 119.802L521.468 125.167L528.578 123.246C529 123.142 529.262 123.215 529.355 123.665C529.377 123.76 529.381 123.858 529.368 123.955C529.338 124.147 529.263 124.329 529.149 124.486C529.034 124.642 528.884 124.769 528.71 124.856L512.797 134.475L507.577 128.691C507.577 128.691 508.296 126.938 509.803 124.165C511.31 121.392 513.729 113.839 513.729 113.839Z" fill="#FFCEC8"/>
<path d="M400.262 137.497C400.262 137.497 396.94 132.402 400.189 126.216C400.189 126.216 405.241 115.193 420.955 119.484C436.669 123.774 432.92 137.634 432.92 137.634C432.92 137.634 437.809 131.273 447.226 135.563C456.643 139.853 454.812 152.16 454.812 152.16C454.812 152.16 452.42 160.477 467.334 160.997C467.334 160.997 475.524 160.35 477.867 166.733C477.867 166.733 483.866 175.342 475.135 184.834C469.105 191.393 475.705 196.39 480.366 198.852C483.685 200.605 486.013 203.904 486.236 207.656C486.458 211.408 485.032 215.4 478.468 216.687C478.468 216.687 489.91 231.86 477.823 245.946C469.105 256.096 458.626 257.03 458.626 257.03L431.258 232.316L427.04 179.438L430.012 155.461C430.012 155.461 422.1 152.634 420.735 143.175C420.329 140.369 419.013 137.715 416.667 136.125C415.259 135.169 412.864 134.52 409.966 134.605C406.541 134.745 403.205 135.739 400.262 137.497Z" fill="#FF9D5A"/>
<path d="M378.761 200.83C380.374 208.041 383.875 214.695 383.875 214.695C383.875 214.695 376.57 246.129 369.276 268.878H388.105C394.17 244.386 404.288 200.925 405.855 177.736L406.632 168.508C406.632 168.508 398.543 166.11 397.624 154.997C397.467 152.72 397.631 150.432 398.11 148.2L400.252 137.489L376.405 63.2364C376.405 63.2364 371.666 61.5326 364.46 67.9928C362.581 69.6784 359.624 69.7017 357.865 67.8918C357.662 67.6827 357.469 67.4632 357.288 67.2342L386.309 189.263C386.309 189.263 377.145 193.616 378.761 200.83ZM449.631 210.708L517.434 138.529C510.999 134.876 510.06 131.342 510.06 131.342C506.041 120.208 500.479 125.469 500.479 125.469L434.554 186.684L434.422 186.708L449.598 210.788L449.631 210.708Z" fill="#464646"/>
<path d="M450.445 268.87H478.789C460.367 256.258 437.91 235.241 437.91 235.241C436.652 228.286 449.404 210.791 450.271 209.607L443.684 181.918L427.03 179.406C422.781 191.936 423.436 213.269 428.213 236.766C430.321 247.154 442.079 260.885 450.445 268.87Z" fill="#464646"/>
<path d="M410.109 258.75C410.044 258.745 409.983 258.716 409.938 258.668C409.893 258.62 409.868 258.556 409.869 258.491C409.869 258.131 410.218 251.417 410.544 244.923C410.847 238.882 411.161 232.632 411.174 232.292C411.197 231.622 413.154 228.261 413.82 227.137L409.936 225.245C409.901 225.228 409.87 225.203 409.846 225.172C409.823 225.141 409.807 225.104 409.801 225.066C409.794 225.028 409.795 224.988 409.806 224.951C409.817 224.913 409.837 224.879 409.863 224.851L413.017 221.485L409.892 220.105C409.844 220.082 409.804 220.045 409.777 219.999C409.751 219.952 409.739 219.899 409.744 219.846L415.619 185.287C415.63 185.231 415.659 185.18 415.702 185.142C415.744 185.104 415.798 185.081 415.855 185.077C415.913 185.075 415.97 185.092 416.017 185.126C416.063 185.16 416.098 185.208 416.114 185.264L418.185 193.032L426.134 189.42C426.165 189.393 426.201 189.375 426.24 189.365C426.279 189.355 426.32 189.355 426.359 189.364C426.398 189.372 426.435 189.39 426.466 189.415C426.497 189.441 426.522 189.473 426.539 189.51C426.555 189.546 426.563 189.586 426.561 189.627C426.56 189.667 426.549 189.706 426.529 189.741C426.51 189.776 426.483 189.807 426.45 189.829C426.417 189.852 426.379 189.867 426.339 189.873L418.123 193.606C418.091 193.622 418.055 193.63 418.02 193.63C417.984 193.63 417.948 193.622 417.916 193.606C417.884 193.59 417.855 193.568 417.832 193.54C417.809 193.513 417.791 193.48 417.781 193.446L415.917 186.499L410.267 219.745L413.535 221.187C413.57 221.205 413.6 221.23 413.624 221.261C413.647 221.291 413.664 221.327 413.672 221.365C413.68 221.403 413.679 221.443 413.67 221.48C413.66 221.518 413.643 221.553 413.618 221.583L410.456 224.949L414.281 226.814C414.311 226.829 414.339 226.851 414.361 226.877C414.383 226.903 414.4 226.934 414.41 226.966C414.419 227 414.422 227.034 414.417 227.069C414.413 227.103 414.402 227.136 414.384 227.166C413.268 229.04 411.686 231.878 411.671 232.316C411.671 232.658 411.357 238.631 411.042 244.954C410.715 251.445 410.379 258.159 410.366 258.514C410.36 258.578 410.33 258.638 410.283 258.681C410.236 258.725 410.174 258.749 410.109 258.75Z" fill="white"/>
<path d="M426.277 159.003C426.018 161.988 425.648 164.394 428.633 164.65C431.619 164.906 436.828 162.918 437.085 159.932C437.183 158.513 436.719 157.112 435.794 156.031C434.869 154.95 433.556 154.276 432.138 154.154C430.72 154.032 429.311 154.472 428.215 155.379C427.119 156.286 426.423 157.587 426.277 159.003Z" fill="#FFD3CF"/>
<path d="M410.93 192.726C410.876 192.725 410.823 192.707 410.78 192.674L403.468 187.094C403.43 187.08 403.397 187.057 403.37 187.027C403.342 186.997 403.323 186.961 403.312 186.923C403.301 186.884 403.299 186.843 403.307 186.803C403.315 186.764 403.331 186.727 403.356 186.695C403.381 186.663 403.412 186.637 403.448 186.62C403.485 186.602 403.525 186.593 403.565 186.594C403.605 186.594 403.645 186.604 403.68 186.623C403.716 186.641 403.747 186.668 403.771 186.701L410.873 192.12L415.441 185.409C415.484 185.374 415.537 185.354 415.593 185.352C415.648 185.35 415.703 185.365 415.749 185.397C415.795 185.428 415.829 185.473 415.847 185.526C415.866 185.578 415.866 185.635 415.85 185.688L411.137 192.617C411.098 192.673 411.039 192.711 410.971 192.723L410.93 192.726Z" fill="white"/>
<path d="M406.642 168.516C406.642 168.516 415.283 169.961 421.963 165.541C421.963 165.541 420.371 171.551 406.373 172.014L406.642 168.516Z" fill="#FFB2A9"/>
<path d="M414.255 144.503C414.433 144.923 415.723 144.788 416.95 145.28C418.208 145.707 419.094 146.652 419.503 146.456C419.938 146.303 419.462 144.433 417.538 143.711C415.614 142.989 414.024 144.105 414.255 144.503ZM402.836 144.56C403.121 144.918 404.327 144.441 405.645 144.594C406.971 144.667 408.079 145.34 408.421 145.039C408.763 144.739 407.836 143.103 405.788 142.924C403.74 142.745 402.507 144.239 402.836 144.56Z" fill="#FF9D5A"/>
<path d="M403.968 150.681C403.776 151.577 404.082 152.403 404.651 152.525C405.221 152.647 405.835 152.007 406.026 151.119C406.218 150.231 405.912 149.395 405.343 149.273C404.773 149.151 404.159 149.783 403.968 150.681ZM414.617 152.737C414.426 153.636 414.731 154.462 415.298 154.583C415.865 154.705 416.482 154.066 416.673 153.175C416.865 152.284 416.559 151.45 415.99 151.331C415.42 151.212 414.806 151.836 414.617 152.737Z" fill="#454545"/>
<path d="M408.442 159.448C408.403 159.448 408.364 159.44 408.328 159.425C408.121 159.345 406.306 158.609 406.257 157.558C406.234 157.04 406.599 156.603 407.347 156.225C409.828 154.977 409.861 150.026 409.861 149.977C409.861 149.893 409.894 149.812 409.954 149.752C410.013 149.693 410.093 149.659 410.177 149.658C410.261 149.659 410.341 149.693 410.401 149.752C410.46 149.812 410.493 149.893 410.493 149.977C410.493 150.197 410.457 155.368 407.645 156.789C407.36 156.931 406.886 157.219 406.902 157.527C406.922 157.99 407.891 158.563 408.572 158.837C408.641 158.864 408.699 158.914 408.735 158.978C408.771 159.043 408.783 159.119 408.77 159.191C408.756 159.264 408.717 159.33 408.659 159.377C408.602 159.424 408.529 159.449 408.455 159.448H408.442Z" fill="#FF7867"/>
<path d="M416.785 158.53C415.89 158.528 415.008 158.315 414.211 157.91C413.413 157.504 412.722 156.917 412.193 156.196C411.664 155.474 411.312 154.638 411.165 153.756C411.018 152.873 411.081 151.968 411.347 151.114C411.662 150.105 412.251 149.202 413.048 148.507C413.845 147.813 414.82 147.353 415.863 147.179C416.906 147.005 417.977 147.124 418.957 147.522C419.936 147.921 420.786 148.584 421.411 149.436C422.037 150.289 422.413 151.299 422.499 152.353C422.584 153.407 422.376 154.464 421.896 155.407C421.417 156.349 420.685 157.14 419.782 157.692C418.88 158.243 417.842 158.533 416.785 158.53ZM416.785 147.595C415.674 147.6 414.594 147.958 413.7 148.617C412.807 149.276 412.146 150.202 411.813 151.262C411.401 152.582 411.531 154.013 412.173 155.238C412.816 156.463 413.919 157.383 415.239 157.795C416.56 158.207 417.99 158.077 419.215 157.435C420.44 156.792 421.36 155.69 421.772 154.369C421.976 153.715 422.049 153.026 421.987 152.344C421.924 151.661 421.728 150.998 421.409 150.391C421.09 149.784 420.655 149.246 420.128 148.808C419.601 148.37 418.993 148.039 418.338 147.836C417.83 147.676 417.3 147.595 416.767 147.595H416.785ZM403.484 156.676C402.904 156.676 402.328 156.588 401.775 156.417C400.512 156.024 399.424 155.205 398.697 154.1C397.97 152.995 397.649 151.672 397.789 150.356C397.928 149.041 398.519 147.814 399.461 146.886C400.404 145.957 401.639 145.385 402.956 145.265C404.273 145.145 405.592 145.486 406.686 146.229C407.78 146.972 408.583 148.072 408.957 149.34C409.332 150.609 409.254 151.968 408.739 153.186C408.223 154.405 407.301 155.406 406.13 156.021C405.314 156.451 404.406 156.676 403.484 156.676ZM403.484 145.742C402.237 145.743 401.032 146.19 400.087 147.003C399.142 147.816 398.519 148.941 398.331 150.173C398.143 151.406 398.403 152.665 399.063 153.722C399.723 154.78 400.74 155.566 401.93 155.938C402.647 156.16 403.403 156.224 404.147 156.127C404.891 156.03 405.605 155.774 406.241 155.375C406.876 154.977 407.419 154.446 407.83 153.819C408.242 153.192 408.514 152.483 408.627 151.742C408.74 151 408.692 150.243 408.485 149.522C408.279 148.8 407.919 148.132 407.431 147.563C406.943 146.993 406.337 146.535 405.656 146.221C404.975 145.907 404.234 145.743 403.484 145.742Z" fill="white"/>
<path d="M411.311 152.947H411.27L408.74 152.512C408.676 152.498 408.62 152.461 408.583 152.408C408.545 152.355 408.529 152.289 408.538 152.225C408.552 152.161 408.589 152.105 408.642 152.068C408.696 152.03 408.761 152.014 408.825 152.023L411.353 152.458C411.405 152.478 411.449 152.515 411.478 152.562C411.507 152.609 411.521 152.665 411.516 152.721C411.512 152.776 411.489 152.829 411.452 152.87C411.415 152.912 411.366 152.941 411.311 152.952V152.947ZM412.945 161.676C412.815 162.722 412.285 163.678 411.464 164.341C410.644 165.005 409.599 165.324 408.548 165.232C407.497 165.14 406.523 164.644 405.831 163.849C405.138 163.053 404.781 162.02 404.835 160.966L412.945 161.676Z" fill="white"/>
<path d="M411.143 134.424C411.143 134.424 411.959 139.325 399.626 140.974C399.626 140.974 396.159 133.075 400.007 126.697L411.143 134.424Z" fill="#FF9D5A"/>
<path d="M515.026 174.137C514.466 174.037 513.889 174.138 513.396 174.422C512.903 174.706 512.527 175.156 512.334 175.691L509.822 180.292L502.23 167.247C502.152 167.11 502.046 166.99 501.918 166.896C501.791 166.802 501.646 166.735 501.492 166.7C501.338 166.664 501.178 166.662 501.022 166.691C500.867 166.721 500.719 166.782 500.589 166.872C500.369 167.03 500.211 167.258 500.139 167.518C500.067 167.779 500.086 168.056 500.192 168.304L504.154 177.884L496 168.327C495.904 168.213 495.786 168.119 495.653 168.051C495.52 167.983 495.374 167.943 495.225 167.932C495.076 167.921 494.927 167.939 494.785 167.987C494.643 168.034 494.513 168.109 494.4 168.208C494.179 168.406 494.042 168.681 494.017 168.976C493.992 169.272 494.081 169.566 494.266 169.798L494.328 169.888C494.294 169.865 501.917 179.495 501.917 179.495L493.991 171.68C493.835 171.526 493.631 171.428 493.412 171.403C493.193 171.377 492.973 171.426 492.785 171.54C492.667 171.613 492.567 171.71 492.489 171.824C492.412 171.939 492.359 172.068 492.334 172.204C492.31 172.34 492.314 172.479 492.347 172.614C492.38 172.748 492.441 172.873 492.526 172.983L499.382 181.843L491.821 176.797C491.366 176.507 491.011 176.463 490.643 176.864C490.567 176.944 490.506 177.038 490.465 177.141C490.396 177.346 490.388 177.566 490.441 177.776C490.494 177.985 490.607 178.175 490.765 178.322L504.716 194.857L514.25 191.491C514.295 189.676 514.231 187.86 514.058 186.053C513.771 182.648 515.026 174.137 515.026 174.137Z" fill="#FFD3CF"/>
<path d="M571.231 90.7295C571.231 90.7295 564.585 122.691 583.66 125.361L583.688 135.311L595.55 143.55L611.699 133.17L615.417 134.428L610.063 95.0432L571.231 90.7295Z" fill="#FFCEC8"/>
<path d="M571.231 90.7302C571.231 90.7302 576.231 99.6061 587.357 93.7933C587.357 93.7933 591.308 92.2267 592.926 96.8563C593.496 98.4876 594.286 100.388 595.842 101.323C596.114 101.499 596.421 101.613 596.742 101.658C597.062 101.702 597.389 101.676 597.698 101.582C598.131 101.426 598.475 101.103 598.861 100.849C600.692 99.6294 603.377 100.212 604.798 101.885C607.732 105.357 605.422 110.735 600.894 110.968C600.094 111.01 599.292 110.986 598.496 110.895C598.496 110.895 599.169 119.339 613.164 117.85L610.818 91.7141C610.818 91.7141 611.17 85.1192 605.381 87.9545L605.746 83.5527C605.746 83.5527 600.003 89.2646 589.397 84.3839C578.792 79.5031 573.155 75.8678 568.587 81.5875C564.02 87.3072 567.497 93.309 570.573 94.381L571.231 90.7302Z" fill="#464646"/>
<path d="M583.652 125.366C583.652 125.366 594.938 125.511 600.482 119.491C600.482 119.491 597.717 127.546 583.652 129.734V125.366Z" fill="#FFB6AD"/>
<path d="M588.419 106.5C588.533 107.22 588.191 107.875 587.658 107.958C587.125 108.041 586.596 107.526 586.485 106.803C586.374 106.081 586.713 105.429 587.246 105.346C587.78 105.263 588.305 105.778 588.419 106.5Z" fill="#464646"/>
<path d="M587.399 110.089C586.468 110.087 585.569 109.753 584.863 109.147C584.157 108.541 583.691 107.702 583.549 106.783L583.072 103.751L592.798 102.221L593.274 105.253C593.354 105.759 593.334 106.277 593.214 106.776C593.094 107.275 592.877 107.745 592.575 108.16C592.274 108.575 591.893 108.926 591.455 109.194C591.018 109.461 590.531 109.64 590.024 109.719L588.013 110.035C587.81 110.069 587.605 110.087 587.399 110.089ZM583.73 104.238L584.118 106.703C584.256 107.575 584.734 108.356 585.448 108.876C586.162 109.395 587.052 109.61 587.925 109.473L589.934 109.157C590.366 109.09 590.78 108.937 591.153 108.709C591.527 108.481 591.851 108.182 592.109 107.829C592.366 107.475 592.552 107.074 592.654 106.649C592.757 106.224 592.775 105.783 592.707 105.351L592.319 102.889L583.73 104.238Z" fill="white"/>
<path d="M578.704 108.028C578.818 108.748 578.476 109.403 577.94 109.486C577.404 109.568 576.881 109.053 576.767 108.331C576.653 107.608 576.995 106.956 577.544 106.873C578.093 106.79 578.59 107.3 578.704 108.028Z" fill="#464646"/>
<path d="M575.11 112.024C574.18 112.021 573.282 111.687 572.577 111.082C571.871 110.477 571.404 109.641 571.26 108.723L570.783 105.691L580.508 104.163L580.987 107.195C581.147 108.218 580.894 109.263 580.284 110.099C579.675 110.936 578.758 111.497 577.735 111.659L575.726 111.975C575.522 112.007 575.316 112.023 575.11 112.024ZM571.443 106.17L571.829 108.635C571.967 109.507 572.445 110.288 573.159 110.808C573.873 111.328 574.763 111.542 575.635 111.405L577.645 111.089C578.517 110.952 579.299 110.474 579.819 109.76C580.339 109.046 580.554 108.156 580.418 107.283L580.029 104.821L571.443 106.17ZM582.383 115.31C582.64 116.519 583.357 117.581 584.382 118.273C585.406 118.964 586.66 119.231 587.877 119.017C589.095 118.803 590.182 118.124 590.909 117.125C591.636 116.125 591.948 114.882 591.777 113.658L582.383 115.31Z" fill="white"/>
<path d="M581.712 103.042L579.804 111.845L583.849 112.247L581.712 103.042Z" fill="#FFCEC8"/>
<path d="M583.849 112.533H583.821L579.776 112.132C579.736 112.128 579.697 112.115 579.662 112.095C579.627 112.075 579.596 112.048 579.572 112.016C579.548 111.982 579.532 111.945 579.524 111.905C579.515 111.866 579.515 111.825 579.522 111.785L581.431 102.982C581.452 102.912 581.499 102.853 581.562 102.817C581.625 102.78 581.699 102.768 581.77 102.784C581.841 102.8 581.904 102.842 581.945 102.901C581.987 102.961 582.005 103.034 581.995 103.106L580.167 111.591L583.891 111.959C583.967 111.962 584.038 111.996 584.09 112.053C584.141 112.109 584.168 112.184 584.164 112.26C584.16 112.336 584.126 112.408 584.07 112.459C584.013 112.511 583.938 112.537 583.862 112.533H583.849Z" fill="#FF7867"/>
<path d="M589.229 100.051C589.228 100.206 589.169 100.355 589.064 100.469C588.958 100.582 588.814 100.652 588.659 100.665L585.293 100.924C585.056 100.924 584.828 100.829 584.66 100.661C584.492 100.493 584.397 100.265 584.397 100.028C584.397 99.9026 584.423 99.7788 584.474 99.6644C584.524 99.5499 584.598 99.4472 584.69 99.3629C584.782 99.2785 584.891 99.2144 585.01 99.1746C585.129 99.1348 585.254 99.1202 585.379 99.1318L588.662 99.4399C588.816 99.4528 588.959 99.5226 589.064 99.6356C589.169 99.7486 589.228 99.8967 589.229 100.051ZM575.397 103.293C575.435 103.443 575.529 103.573 575.659 103.658C575.789 103.742 575.946 103.775 576.099 103.748L579.416 103.158C579.53 103.129 579.638 103.078 579.732 103.007C579.827 102.936 579.907 102.848 579.967 102.746C580.027 102.645 580.067 102.533 580.084 102.416C580.101 102.299 580.095 102.18 580.066 102.065C580.034 101.944 579.978 101.831 579.901 101.733C579.824 101.635 579.727 101.554 579.616 101.495C579.506 101.437 579.385 101.402 579.26 101.392C579.136 101.383 579.01 101.4 578.893 101.441L575.785 102.552C575.641 102.604 575.522 102.707 575.45 102.842C575.378 102.977 575.359 103.134 575.397 103.282V103.293Z" fill="#464646"/>
<path d="M592.422 103.106L571.392 106.412C571.324 106.424 571.255 106.421 571.189 106.405C571.122 106.389 571.059 106.361 571.004 106.32C570.949 106.28 570.902 106.229 570.866 106.171C570.83 106.113 570.807 106.048 570.796 105.98C570.785 105.912 570.788 105.843 570.804 105.776C570.82 105.71 570.849 105.647 570.889 105.591C570.93 105.536 570.981 105.489 571.039 105.454C571.098 105.418 571.163 105.395 571.231 105.385L592.261 102.078C592.329 102.067 592.398 102.07 592.465 102.085C592.532 102.101 592.595 102.13 592.65 102.171C592.705 102.211 592.752 102.263 592.788 102.321C592.823 102.38 592.847 102.445 592.857 102.513C592.867 102.581 592.865 102.65 592.848 102.716C592.832 102.782 592.803 102.845 592.763 102.9C592.722 102.955 592.671 103.002 592.613 103.037C592.554 103.072 592.489 103.096 592.422 103.106Z" fill="#FFA680"/>
<path d="M591.49 251.144C591.673 251.914 591.754 252.705 591.731 253.495V253.514L593.307 268.878H628.49L622.504 208.393L622.475 208.106L622.411 207.44L622.38 207.145L622.328 206.627L622.284 206.184L622.248 205.812L622.222 205.553V205.527L622.183 205.133L622.162 204.934L622.118 204.463L622.103 204.32L622.012 203.401L621.996 203.24L614.819 130.741L596.156 142.072L583.655 134.017L583.688 130.741L579.501 134.211L591.35 249.772L591.49 251.144Z" fill="#FF7867"/>
<path d="M538.949 217.937L519.529 185.854L497.984 196.987L520.008 238.048C520.008 238.048 521.769 241.235 521.916 241.556C527.753 254.332 543.433 255.383 553.847 245.958C554.166 245.671 554.489 245.357 554.81 245.052L539.275 217.626L538.949 217.937Z" fill="#464646"/>
<path d="M554.901 268.871H593.338C591.008 244.495 580.335 134.025 579.499 134.196C550.569 140.089 532.778 156.722 526.983 180.582C523.739 193.94 524.107 231.508 524.161 236.008L554.777 245.228C554.867 240.029 554.153 232.714 554.577 225.511L554.901 268.871Z" fill="#464646"/>
<path d="M554.577 239.095C554.502 239.095 554.43 239.065 554.376 239.012C554.322 238.959 554.291 238.888 554.29 238.812L552.77 172.91C552.77 172.834 552.8 172.761 552.854 172.707C552.908 172.653 552.981 172.623 553.057 172.623C553.134 172.623 553.207 172.653 553.261 172.707C553.315 172.761 553.345 172.834 553.345 172.91L554.865 238.812C554.866 238.85 554.859 238.888 554.846 238.923C554.832 238.958 554.812 238.99 554.786 239.018C554.76 239.045 554.729 239.067 554.695 239.083C554.66 239.098 554.623 239.106 554.585 239.107L554.577 239.095Z" fill="#333333"/>
<path d="M671.827 268.87C671.93 265.157 672.033 261.446 672.135 257.736C676.317 257.673 680.372 256.287 683.717 253.775C683.823 253.697 683.926 253.617 684.027 253.537C686.251 251.762 687.992 249.456 689.09 246.832C690.187 244.207 690.605 241.348 690.306 238.519L685.964 195.853C685.458 191.802 684.679 187.79 683.634 183.844C677.971 162.736 664.799 146.064 643.912 139.643L618.677 131.898L614.816 130.746L628.392 268.87H671.827Z" fill="#464646"/>
<path d="M606.787 267.597C606.701 267.597 606.618 267.566 606.553 267.51C606.488 267.454 606.445 267.377 606.432 267.292C606.282 266.279 606.222 265.316 606.173 264.384C606.142 263.835 606.109 263.265 606.054 262.688C605.912 260.904 605.731 259.089 605.554 257.336C605.378 255.583 605.197 253.76 605.055 251.971C605.018 251.422 604.99 250.868 604.964 250.332C604.919 248.692 604.759 247.057 604.488 245.438C604.268 244.118 603.602 243.064 602.898 241.945C602.732 241.686 602.561 241.412 602.396 241.138C602.217 240.895 602.094 240.616 602.037 240.321C601.979 240.025 601.989 239.72 602.064 239.429C602.229 238.919 602.458 238.431 602.745 237.979C603.002 237.582 603.206 237.154 603.354 236.705C603.55 235.928 602.812 235.475 601.826 234.983C601.487 234.831 601.184 234.609 600.936 234.333C600.688 234.056 600.501 233.731 600.386 233.378C600.307 233.08 600.292 232.768 600.343 232.464C600.394 232.16 600.509 231.87 600.681 231.614C600.695 231.591 600.711 231.569 600.731 231.55C600.843 231.407 600.918 231.239 600.948 231.06C600.983 230.917 601.031 230.777 601.093 230.643C601.106 230.617 601.122 230.592 601.142 230.571C602.098 229.455 602.696 228.538 603.048 227.609C601.634 209.942 600.086 192.032 598.589 174.713C597.668 164.048 596.712 153.02 595.801 142.153C595.797 142.106 595.802 142.058 595.816 142.013C595.83 141.968 595.853 141.926 595.884 141.89C595.914 141.854 595.951 141.824 595.993 141.802C596.035 141.78 596.081 141.767 596.128 141.763C596.175 141.759 596.223 141.764 596.268 141.778C596.313 141.793 596.355 141.816 596.391 141.846C596.427 141.877 596.457 141.914 596.479 141.956C596.5 141.998 596.514 142.044 596.518 142.091C597.429 152.965 598.385 163.985 599.307 174.651C600.806 191.999 602.357 209.94 603.773 227.635C603.778 227.686 603.771 227.739 603.752 227.787C603.367 228.823 602.74 229.807 601.72 231.001C601.689 231.085 601.663 231.172 601.642 231.26C601.586 231.545 601.458 231.813 601.272 232.036C601.16 232.205 601.086 232.395 601.053 232.595C601.019 232.794 601.029 232.998 601.08 233.194C601.169 233.449 601.31 233.684 601.493 233.882C601.677 234.081 601.899 234.24 602.147 234.349C603.045 234.799 604.405 235.477 604.05 236.902C603.885 237.412 603.656 237.899 603.369 238.352C603.113 238.749 602.909 239.177 602.761 239.625C602.71 239.82 602.705 240.023 602.746 240.219C602.788 240.416 602.874 240.6 602.999 240.757C603.159 241.016 603.33 241.298 603.496 241.56C604.208 242.686 604.943 243.854 605.187 245.311C605.464 246.959 605.626 248.623 605.674 250.293C605.699 250.827 605.725 251.378 605.762 251.917C605.904 253.695 606.085 255.508 606.261 257.263C606.437 259.019 606.619 260.837 606.761 262.623C606.815 263.208 606.849 263.783 606.883 264.337C606.94 265.298 606.991 266.204 607.142 267.186C607.149 267.232 607.146 267.28 607.135 267.326C607.123 267.372 607.103 267.415 607.075 267.453C607.047 267.491 607.011 267.523 606.971 267.547C606.93 267.572 606.885 267.588 606.839 267.595L606.787 267.597Z" fill="white"/>
<path d="M587.934 147.219C587.878 147.219 587.822 147.206 587.772 147.181C587.721 147.155 587.678 147.118 587.644 147.072L579.323 135.648C579.266 135.571 579.243 135.474 579.258 135.38C579.273 135.285 579.324 135.201 579.402 135.144C579.479 135.088 579.575 135.065 579.67 135.08C579.764 135.094 579.849 135.146 579.905 135.223L588.035 146.386L595.964 141.808C596.019 141.777 596.081 141.761 596.144 141.761C596.207 141.761 596.269 141.777 596.324 141.808L602.818 145.56L615.194 136.554C615.232 136.526 615.276 136.506 615.322 136.495C615.368 136.484 615.416 136.482 615.462 136.489C615.509 136.497 615.554 136.513 615.594 136.538C615.635 136.563 615.67 136.595 615.698 136.633C615.726 136.671 615.746 136.715 615.757 136.761C615.768 136.807 615.77 136.855 615.763 136.901C615.755 136.948 615.739 136.993 615.714 137.033C615.689 137.074 615.657 137.109 615.619 137.137L603.053 146.279C602.996 146.32 602.929 146.343 602.859 146.347C602.79 146.351 602.72 146.334 602.66 146.3L596.142 142.535L588.116 147.173C588.06 147.203 587.998 147.219 587.934 147.219Z" fill="white"/>
<path d="M593.794 154.974C594.678 154.974 595.395 154.257 595.395 153.374C595.395 152.49 594.678 151.773 593.794 151.773C592.911 151.773 592.194 152.49 592.194 153.374C592.194 154.257 592.911 154.974 593.794 154.974Z" fill="white"/>
<path d="M596.459 190.44C597.342 190.44 598.059 189.723 598.059 188.839C598.059 187.956 597.342 187.239 596.459 187.239C595.575 187.239 594.858 187.956 594.858 188.839C594.858 189.723 595.575 190.44 596.459 190.44Z" fill="white"/>
<path d="M600.723 222.524C600.723 222.841 600.629 223.151 600.453 223.414C600.277 223.678 600.026 223.883 599.733 224.005C599.44 224.126 599.118 224.157 598.807 224.095C598.496 224.033 598.21 223.88 597.986 223.656C597.762 223.432 597.61 223.146 597.548 222.835C597.487 222.524 597.519 222.201 597.64 221.908C597.762 221.616 597.968 221.366 598.232 221.19C598.496 221.014 598.806 220.92 599.123 220.921C599.333 220.921 599.542 220.962 599.736 221.043C599.93 221.124 600.107 221.242 600.255 221.39C600.404 221.539 600.522 221.716 600.602 221.91C600.682 222.105 600.723 222.313 600.723 222.524ZM604.465 262.028C604.465 262.345 604.371 262.655 604.194 262.918C604.018 263.182 603.768 263.387 603.475 263.509C603.182 263.63 602.86 263.662 602.549 263.6C602.238 263.538 601.953 263.385 601.728 263.161C601.504 262.937 601.352 262.652 601.29 262.341C601.228 262.03 601.26 261.707 601.381 261.415C601.502 261.122 601.708 260.871 601.971 260.695C602.235 260.519 602.545 260.425 602.862 260.425C603.287 260.425 603.695 260.594 603.995 260.895C604.296 261.195 604.465 261.603 604.465 262.028Z" fill="white"/>
<path d="M502.536 200.892C502.274 200.626 502.096 200.288 502.025 199.921C501.955 199.554 501.995 199.174 502.14 198.83C502.285 198.485 502.53 198.192 502.842 197.986C503.154 197.78 503.52 197.672 503.894 197.674C504.268 197.677 504.633 197.79 504.942 198C505.252 198.21 505.492 198.507 505.633 198.853C505.773 199.2 505.808 199.58 505.733 199.946C505.657 200.313 505.475 200.648 505.208 200.911C504.851 201.262 504.369 201.457 503.869 201.454C503.368 201.45 502.889 201.248 502.536 200.892ZM504.817 198.645C504.634 198.461 504.4 198.336 504.145 198.286C503.891 198.235 503.627 198.261 503.387 198.36C503.147 198.46 502.942 198.628 502.798 198.844C502.653 199.06 502.576 199.314 502.576 199.573C502.576 199.833 502.653 200.087 502.798 200.303C502.942 200.518 503.147 200.687 503.387 200.786C503.627 200.885 503.891 200.911 504.145 200.861C504.4 200.81 504.634 200.685 504.817 200.501C504.94 200.38 505.037 200.235 505.103 200.076C505.17 199.917 505.204 199.746 505.204 199.574C505.204 199.401 505.171 199.23 505.105 199.071C505.039 198.912 504.942 198.767 504.82 198.645H504.817ZM503.375 207.656C503.356 207.636 503.34 207.614 503.326 207.591C503.29 207.523 503.282 207.445 503.304 207.371C503.326 207.298 503.375 207.237 503.442 207.2L521.987 197.148C522.055 197.112 522.136 197.104 522.21 197.127C522.284 197.15 522.347 197.201 522.383 197.27C522.419 197.339 522.427 197.419 522.404 197.493C522.381 197.568 522.33 197.63 522.261 197.666L503.717 207.72C503.661 207.748 503.597 207.757 503.535 207.746C503.473 207.734 503.417 207.702 503.375 207.656Z" fill="#333333"/>
<path d="M645.561 261.359L610.081 266.173L606.111 241.658L647.874 233.328L645.561 261.359Z" fill="#464646"/>
<path d="M616.378 239.897C616.311 239.896 616.247 239.873 616.196 239.831C616.144 239.79 616.109 239.731 616.095 239.666C616.088 239.629 616.088 239.591 616.095 239.554C616.103 239.516 616.117 239.481 616.139 239.449C616.16 239.418 616.187 239.391 616.219 239.37C616.25 239.349 616.286 239.334 616.323 239.327L656.496 231.301L645.934 167.959C645.928 167.922 645.929 167.884 645.937 167.847C645.946 167.811 645.961 167.776 645.983 167.745C646.005 167.714 646.033 167.688 646.065 167.668C646.097 167.648 646.132 167.634 646.17 167.628C646.207 167.622 646.245 167.623 646.282 167.631C646.319 167.64 646.353 167.655 646.384 167.677C646.415 167.699 646.441 167.727 646.461 167.759C646.481 167.791 646.495 167.826 646.501 167.864L657.117 231.495C657.13 231.568 657.113 231.644 657.071 231.706C657.028 231.767 656.963 231.81 656.889 231.824L616.442 239.892L616.378 239.897ZM610.332 266.45C610.259 266.45 610.189 266.422 610.135 266.372C610.082 266.323 610.05 266.255 610.045 266.182C610.04 266.109 610.063 266.037 610.109 265.981C610.155 265.924 610.221 265.887 610.293 265.877L672.086 257.449C672.158 257.446 672.228 257.47 672.284 257.517C672.339 257.563 672.375 257.629 672.385 257.7C672.395 257.772 672.377 257.844 672.336 257.904C672.295 257.963 672.234 258.005 672.163 258.022L610.363 266.447L610.332 266.45ZM613.957 262.071C613.823 262.071 613.689 262.056 613.558 262.027C613.193 261.949 612.859 261.764 612.599 261.495C612.339 261.227 612.164 260.887 612.097 260.519C612.03 260.152 612.074 259.772 612.223 259.43C612.372 259.087 612.62 258.796 612.934 258.594C613.142 258.458 613.374 258.365 613.618 258.32C613.863 258.276 614.113 258.281 614.355 258.335C614.81 258.435 615.212 258.699 615.484 259.077C615.756 259.454 615.879 259.919 615.829 260.382C615.78 260.845 615.562 261.273 615.216 261.585C614.871 261.896 614.422 262.07 613.957 262.071ZM613.957 258.866C613.641 258.878 613.339 259.003 613.108 259.219C612.877 259.435 612.731 259.727 612.698 260.042C612.665 260.356 612.746 260.672 612.927 260.932C613.107 261.191 613.376 261.377 613.682 261.455C614.022 261.526 614.375 261.46 614.666 261.271C614.957 261.082 615.162 260.787 615.236 260.448C615.307 260.108 615.24 259.755 615.052 259.464C614.863 259.173 614.567 258.968 614.229 258.894C614.138 258.875 614.046 258.865 613.954 258.866H613.957Z" fill="#333333"/>
<path d="M621.124 264.987C621.055 264.987 620.989 264.962 620.937 264.918C620.885 264.873 620.85 264.811 620.839 264.744L617.39 243.009C617.384 242.972 617.386 242.934 617.395 242.897C617.403 242.86 617.419 242.825 617.442 242.795C617.464 242.764 617.492 242.738 617.524 242.718C617.557 242.699 617.592 242.685 617.63 242.679C617.667 242.673 617.705 242.675 617.742 242.684C617.779 242.693 617.814 242.709 617.844 242.731C617.875 242.753 617.901 242.781 617.921 242.813C617.941 242.846 617.954 242.881 617.96 242.919L621.409 264.653C621.421 264.729 621.402 264.806 621.358 264.868C621.313 264.93 621.246 264.972 621.171 264.985L621.124 264.987Z" fill="#333333"/>
<path d="M582.583 264.324L584.771 261.497L584.597 267.97C584.595 268.143 584.633 268.315 584.708 268.472C584.783 268.629 584.893 268.766 585.03 268.873H586.446C586.651 268.714 586.794 268.489 586.852 268.236L587.751 264L591.547 258.988L588.139 263.692L588.333 268.886H590.586L591.536 264.951L594.234 261.352C594.26 261.316 594.297 261.29 594.339 261.278C594.381 261.265 594.426 261.266 594.467 261.282C594.495 261.292 594.52 261.308 594.541 261.329C594.562 261.35 594.578 261.376 594.588 261.403C594.598 261.431 594.602 261.461 594.599 261.49C594.597 261.52 594.588 261.548 594.574 261.574L592.588 265.077L591.764 268.886H594.581L595.969 266.382L597.738 263.433L600.5 261.898C604.827 263.495 607.106 260.986 607.106 260.986L609.283 261.313L607.028 247.209C605.598 247.566 604.19 248.003 602.81 248.519L591.086 252.771L585.234 256.282C584.628 256.647 584.142 257.182 583.836 257.82L581.143 263.444C581.056 263.633 581.041 263.847 581.101 264.047C581.161 264.246 581.292 264.417 581.469 264.526C581.646 264.635 581.858 264.676 582.063 264.64C582.268 264.604 582.453 264.495 582.583 264.332V264.324Z" fill="#FFCEC8"/>
<path d="M584.99 261.688H584.972C584.953 261.686 584.935 261.68 584.919 261.67C584.902 261.66 584.888 261.648 584.876 261.633C584.865 261.617 584.856 261.6 584.851 261.582C584.847 261.563 584.845 261.544 584.848 261.525L584.895 261.17C584.963 260.66 585.204 260.188 585.578 259.834L589.925 255.743C589.953 255.716 589.989 255.701 590.028 255.701C590.066 255.701 590.103 255.716 590.13 255.743C590.144 255.756 590.155 255.772 590.162 255.789C590.169 255.807 590.173 255.825 590.173 255.844C590.173 255.863 590.169 255.882 590.162 255.899C590.155 255.917 590.144 255.932 590.13 255.945L585.785 260.039C585.458 260.346 585.247 260.757 585.187 261.202L585.141 261.559C585.139 261.577 585.134 261.595 585.126 261.612C585.118 261.628 585.106 261.643 585.092 261.655C585.078 261.667 585.062 261.676 585.045 261.682C585.027 261.688 585.009 261.69 584.99 261.688ZM588.211 263.876C588.195 263.88 588.178 263.88 588.162 263.876C588.144 263.87 588.128 263.861 588.114 263.848C588.099 263.835 588.088 263.82 588.08 263.803C588.072 263.785 588.068 263.767 588.067 263.748C588.066 263.729 588.07 263.71 588.077 263.692L588.214 263.32C588.219 263.305 588.227 263.292 588.237 263.281L591.451 259.231C591.461 259.213 591.475 259.198 591.492 259.186C591.509 259.175 591.529 259.167 591.549 259.163C591.569 259.159 591.59 259.16 591.61 259.165C591.63 259.17 591.649 259.179 591.665 259.192C591.681 259.205 591.695 259.221 591.704 259.239C591.713 259.258 591.719 259.278 591.72 259.298C591.721 259.319 591.717 259.34 591.71 259.359C591.702 259.378 591.691 259.395 591.676 259.41L588.476 263.433L588.346 263.783C588.336 263.811 588.318 263.834 588.293 263.851C588.269 263.868 588.241 263.876 588.211 263.876Z" fill="#FF7867"/>
<path d="M546.082 231.435C546.022 231.434 545.964 231.418 545.912 231.388C545.861 231.358 545.819 231.315 545.789 231.264L525.533 196.332C525.511 196.294 525.496 196.251 525.491 196.207C525.485 196.163 525.488 196.118 525.499 196.075C525.511 196.032 525.531 195.991 525.558 195.956C525.585 195.921 525.619 195.891 525.657 195.869C525.696 195.846 525.739 195.832 525.783 195.826C525.827 195.82 525.872 195.823 525.915 195.835C525.958 195.846 525.998 195.866 526.034 195.893C526.069 195.921 526.099 195.954 526.121 195.993L546.387 230.925C546.432 231.002 546.444 231.095 546.421 231.181C546.398 231.268 546.342 231.342 546.265 231.388C546.21 231.42 546.146 231.437 546.082 231.435Z" fill="#333333"/>
</svg>
