<svg width="180" height="33" viewBox="0 0 180 33" fill="none" xmlns="http://www.w3.org/2000/svg">
<path fill-rule="evenodd" clip-rule="evenodd" d="M49.2557 26.5606H44.2518C43.9534 25.6341 43.9048 13.4783 44.1894 12.0729C44.3841 12.0352 44.5812 12.0108 44.7793 12H51.6813C52.4031 14.8663 53.1145 17.6667 53.8224 20.4705C55.0335 17.7257 55.7205 14.849 56.7095 12.0174H63.9967C64.2639 12.9751 64.316 25.0025 64.0384 26.5641H58.6215C58.5209 24.194 58.6215 21.8378 58.5626 19.4989C58.5097 19.4813 58.4549 19.4696 58.3995 19.4642C58.3613 19.4642 58.3023 19.4885 58.2954 19.5163C57.6013 21.8586 56.9073 24.2044 56.2341 26.8659H51.723C50.9838 24.2772 50.2482 21.9766 49.509 19.6759L49.2627 19.7314L49.2557 26.5606Z" fill="white"/>
<path fill-rule="evenodd" clip-rule="evenodd" d="M159.858 18.6157V12.1752C160.764 12.1474 161.548 12.1092 162.329 12.0954C163.11 12.0815 163.846 12.0954 164.581 12.0954C164.862 13.0358 164.953 24.4316 164.696 26.472C163.759 26.472 162.801 26.5067 161.843 26.5137C160.886 26.5206 159.9 26.5137 158.859 26.5137C157.655 24.3101 156.465 22.1344 155.15 19.7365C154.754 21.0517 154.948 22.1413 154.907 23.2066C154.865 24.272 154.907 25.313 154.907 26.4824C153.203 26.6663 151.61 26.5553 150.048 26.6039C149.733 25.6531 149.622 14.7292 149.878 12.1648C150.847 11.8767 151.863 12.0607 152.859 12.0294C153.855 11.9982 154.889 12.0294 156 12.0294C157.19 14.2225 158.377 16.4018 159.564 18.5845L159.869 18.5394" fill="white"/>
<path fill-rule="evenodd" clip-rule="evenodd" d="M89.8594 17.9399H97.1467V26.5284C96.8021 26.5833 96.4544 26.6158 96.1056 26.6255C93.2671 26.5804 90.425 26.5665 87.59 26.452C84.6543 26.3306 82.246 24.3144 81.4305 21.4065C80.8459 19.3887 81.0455 17.2245 81.9892 15.3477C82.9574 13.342 84.5744 12.1517 86.7676 12.065C89.849 11.94 95.9425 12.0337 95.9425 12.0337V16.0591C95.6198 16.0903 95.3144 16.1458 95.0056 16.1493C93.4371 16.1701 91.8825 16.1666 90.3001 16.1979C89.1689 16.2222 88.0827 16.4408 87.5969 17.6241C87.0348 19.0121 87.0174 20.4002 87.9786 21.6182C88.3304 22.0019 88.7842 22.2775 89.2869 22.4128C90.0777 22.624 90.9108 22.618 91.6986 22.3955V21.2503L89.8802 21.0734L89.8594 17.9399Z" fill="white"/>
<path fill-rule="evenodd" clip-rule="evenodd" d="M148.345 26.5536H142.053L141.193 24.4334H136.682C136.453 25.1101 136.245 25.7382 135.988 26.5155C134.135 26.5155 132.271 26.5155 130.224 26.4461C131.959 21.5046 133.656 16.761 135.342 12H143.206L148.345 26.5259M140.187 20.7967C139.822 19.367 139.652 18.0206 138.948 16.5458C138.493 18.1213 138.122 19.3983 137.719 20.7967H140.187Z" fill="white"/>
<path fill-rule="evenodd" clip-rule="evenodd" d="M111.166 12C112.845 16.7471 114.504 21.4456 116.201 26.2448H109.788C109.552 25.6479 109.327 25.0615 109.094 24.4265H104.823L104.198 26.2448H98.3196C99.9679 21.4144 101.668 16.7471 103.344 12H111.166ZM108.15 20.4844C107.842 19.0721 107.557 17.7083 106.856 16.4105C106.474 17.7326 106.096 19.0513 105.683 20.4844H108.15Z" fill="white"/>
<path fill-rule="evenodd" clip-rule="evenodd" d="M66.8318 12H80.1639V15.9559C77.7869 16.1398 75.3648 15.9039 72.8767 16.0566V17.7639H78.6475V21.0986H72.8906V22.622C74.1077 22.7088 75.3285 22.7331 76.5481 22.6949C77.7314 22.6949 78.9147 22.6949 80.1639 22.6949V26.4599C79.175 26.7029 68.2164 26.7549 66.8248 26.5398C66.5923 25.6236 66.5403 13.6552 66.7832 12.1249" fill="white"/>
<path fill-rule="evenodd" clip-rule="evenodd" d="M167.132 26.5323V22.5659C167.479 22.5243 167.826 22.4584 168.141 22.4549C169.752 22.4549 171.365 22.4549 172.979 22.4549C173.846 22.4549 174.256 22.212 174.294 21.7609C174.336 21.2369 173.867 20.9072 172.996 20.8864C172.233 20.8621 171.469 20.8864 170.706 20.8656C168.249 20.8135 166.639 19.2485 166.542 16.8194C166.517 16.3566 166.529 15.8925 166.576 15.4314C166.659 14.5314 167.065 13.6919 167.72 13.0689C168.375 12.446 169.234 12.082 170.137 12.0446C173.104 11.9613 176.071 12.0203 179.19 12.0203C179.289 13.3776 179.289 14.7403 179.19 16.0976H177.774H173.062C172.604 16.0976 172.205 16.2226 172.118 16.7466C172.045 17.1803 172.41 17.5933 172.996 17.6314C173.881 17.6904 174.773 17.6661 175.661 17.6766C176.734 17.6897 177.762 18.1129 178.533 18.8594C179.304 19.606 179.76 20.6193 179.808 21.6915C179.808 21.7331 179.808 21.7782 179.808 21.8199C179.833 22.4333 179.733 23.0454 179.515 23.6193C179.297 24.1931 178.965 24.7169 178.538 25.1588C178.112 25.6008 177.601 25.9519 177.036 26.191C176.47 26.43 175.862 26.552 175.248 26.5496H167.132V26.5323Z" fill="white"/>
<path fill-rule="evenodd" clip-rule="evenodd" d="M129.86 18.3642V21.6955H123.832C123.53 23.3438 123.832 24.8984 123.631 26.4114C122.687 26.6647 119.415 26.6855 117.732 26.4322C117.475 21.6643 117.53 16.8686 117.499 12H130.755V15.9559H124.103V18.2393L129.929 18.3468" fill="white"/>
<path fill-rule="evenodd" clip-rule="evenodd" d="M17.019 30.8222L0.139648 3.74857C0.774845 3.52648 8.27949 3.44652 10.174 3.62198C10.3361 3.87073 10.5338 4.15501 10.7115 4.45484C12.7725 7.93287 14.8321 11.4124 16.8902 14.8934C17.1135 15.2328 17.236 15.6287 17.2433 16.035C17.23 20.8411 17.2433 25.6473 17.2433 30.4513C17.2433 30.5556 17.2278 30.6578 17.2211 30.7622L17.0368 30.8244" fill="white"/>
<path fill-rule="evenodd" clip-rule="evenodd" d="M25.6054 3.6958H35.5997C35.2222 4.67747 19.48 29.9565 18.6138 30.9471V30.3319C18.6138 25.6367 18.6138 20.9409 18.6138 16.2443C18.6007 15.7844 18.7177 15.3302 18.9514 14.9339C21.0761 11.367 23.1919 7.79571 25.2989 4.21995C25.4077 4.03561 25.5432 3.86682 25.6609 3.6958" fill="white"/>
<path fill-rule="evenodd" clip-rule="evenodd" d="M35.6867 32.2038H26.8939C26.8739 31.9595 26.8428 31.7596 26.8428 31.5375C26.8428 28.1172 26.8428 24.6969 26.8428 21.2744C26.8255 20.9007 26.9198 20.5304 27.1138 20.2105C29.9374 15.7331 32.7506 11.2527 35.5535 6.76926C35.5668 6.74705 35.5979 6.73594 35.6778 6.68042L35.6867 32.2038Z" fill="white"/>
<path fill-rule="evenodd" clip-rule="evenodd" d="M0 32.2039V6.68726C0.118445 6.8159 0.228957 6.95163 0.330924 7.09369C3.04939 11.3964 5.76859 15.6948 8.48853 19.9886C8.78804 20.4379 8.94304 20.9679 8.93273 21.5078C8.91274 24.7659 8.93273 28.0263 8.93273 31.28V32.2039H0Z" fill="white"/>
<path fill-rule="evenodd" clip-rule="evenodd" d="M17.9164 13.6856L12.022 3.57798L17.9053 0L23.8064 3.56687L17.9164 13.6856ZM21.9763 3.72234L21.9097 3.51579C19.2446 3.538 16.5794 3.4847 13.9142 3.54688L13.8543 3.73344L17.9098 6.4408L21.9763 3.73122" fill="white"/>
</svg>
