<svg width="32" height="29" viewBox="0 0 32 29" fill="none" xmlns="http://www.w3.org/2000/svg">
<path fill-rule="evenodd" clip-rule="evenodd" d="M15.7953 28.9981L0.399902 5.79048C0.979256 5.60009 7.82413 5.53156 9.55206 5.68196C9.69994 5.89519 9.88023 6.13888 10.0423 6.39589C11.9221 9.37728 13.8007 12.3599 15.6778 15.3439C15.8815 15.6349 15.9932 15.9742 15.9999 16.3224C15.9877 20.4423 15.9999 24.5622 15.9999 28.6802C15.9999 28.7696 15.9857 28.8572 15.9796 28.9467L15.8115 29" fill="white"/>
<path fill-rule="evenodd" clip-rule="evenodd" d="M22.4217 5.6H31.6C31.2533 6.44293 16.7964 28.1494 16.0009 29V28.4717C16.0009 24.4401 16.0009 20.4079 16.0009 16.3751C15.9889 15.9802 16.0963 15.5902 16.3109 15.2499C18.2622 12.1871 20.2053 9.12049 22.1402 6.05007C22.2401 5.89179 22.3646 5.74685 22.4727 5.6" fill="white"/>
<path fill-rule="evenodd" clip-rule="evenodd" d="M31.5998 29H23.8466C23.829 28.8009 23.8016 28.638 23.8016 28.457C23.8016 25.6697 23.8016 22.8824 23.8016 20.0932C23.7863 19.7887 23.8695 19.4869 24.0405 19.2262C26.5302 15.5774 29.0108 11.9261 31.4823 8.2724C31.4941 8.2543 31.5215 8.24525 31.592 8.2L31.5998 29Z" fill="white"/>
<path fill-rule="evenodd" clip-rule="evenodd" d="M0.399902 29V8.2C0.503322 8.30487 0.599815 8.41551 0.688847 8.53131C3.06246 12.0387 5.43673 15.5425 7.81164 19.0427C8.07315 19.4088 8.20848 19.8409 8.19948 20.281C8.18203 22.9369 8.19948 25.5946 8.19948 28.2469V29H0.399902Z" fill="white"/>
<path fill-rule="evenodd" clip-rule="evenodd" d="M16.0018 13.4L10.7998 3.79873L15.992 0.4L21.1998 3.78819L16.0018 13.4ZM19.5847 3.93586L19.5259 3.73966C17.1739 3.76076 14.8218 3.71013 12.4698 3.7692L12.4168 3.94641L15.9959 6.51814L19.5847 3.9443" fill="white"/>
</svg>
